<?xml version="1.0" encoding="utf-8" standalone="no"?>
<!DOCTYPE svg PUBLIC "-//W3C//DTD SVG 1.1//EN"
  "http://www.w3.org/Graphics/SVG/1.1/DTD/svg11.dtd">
<svg xmlns:xlink="http://www.w3.org/1999/xlink" width="533.493819pt" height="367.8905pt" viewBox="0 0 533.493819 367.8905" xmlns="http://www.w3.org/2000/svg" version="1.1">
 <metadata>
  <rdf:RDF xmlns:dc="http://purl.org/dc/elements/1.1/" xmlns:cc="http://creativecommons.org/ns#" xmlns:rdf="http://www.w3.org/1999/02/22-rdf-syntax-ns#">
   <cc:Work>
    <dc:type rdf:resource="http://purl.org/dc/dcmitype/StillImage"/>
    <dc:date>2026-09-24T20:08:41.474795</dc:date>
    <dc:format>image/svg+xml</dc:format>
    <dc:creator>
     <cc:Agent>
      <dc:title>Matplotlib v3.11.2, https://matplotlib.org/</dc:title>
     </cc:Agent>
    </dc:creator>
   </cc:Work>
  </rdf:RDF>
 </metadata>
 <defs>
  <style type="text/css">*{stroke-linejoin: round; stroke-linecap: butt}</style>
 </defs>
 <g id="figure_1">
  <g id="patch_1">
   <path d="M 0 367.8905
L 533.493819 367.8905
L 533.493819 0
L 0 0
z
" style="fill: #fffdf9"/>
  </g>
  <g id="axes_1">
   <g id="patch_2">
    <path d="M 43.369834 328.86
L 522.2525 328.86
L 522.2525 8.382832
L 43.369834 8.382832
z
" style="fill: #fffdf9"/>
   </g>
   <g id="matplotlib.axis_1">
    <g id="xtick_1">
     <g id="line2d_1">
      <defs>
       <path id="md7ef500bb8" d="M 0 0
L 0 -4.8
" style="stroke: #000000; stroke-width: 0.9"/>
      </defs>
      <g>
       <use xlink:href="#md7ef500bb8" x="43.369834" y="328.86" style="stroke: #000000; stroke-width: 0.9"/>
      </g>
     </g>
     <g id="line2d_2">
      <defs>
       <path id="m4bd19c516c" d="M 0 0
L 0 4.8
" style="stroke: #000000; stroke-width: 0.9"/>
      </defs>
      <g>
       <use xlink:href="#m4bd19c516c" x="43.369834" y="8.382832" style="stroke: #000000; stroke-width: 0.9"/>
      </g>
     </g>
     <g id="text_1">
      <!-- 0.4 -->
      <g transform="translate(35.728515 341.925664) scale(0.1196 -0.1196)">
       <defs>
        <path id="CMUSerif-Roman-13" d="M 250 2047
Q 250 2988 488 3500
Q 819 4263 1600 4263
Q 1766 4263 1939 4217
Q 2113 4172 2333 4000
Q 2553 3828 2688 3547
Q 2944 3003 2944 2047
Q 2944 1113 2706 603
Q 2359 -141 1594 -141
Q 1306 -141 1014 6
Q 722 153 538 506
Q 250 1034 250 2047
z
M 781 2125
Q 781 1159 850 775
Q 928 359 1142 179
Q 1356 0 1594 0
Q 1850 0 2064 192
Q 2278 384 2344 800
Q 2416 1209 2413 2125
Q 2413 3016 2350 3372
Q 2266 3788 2042 3955
Q 1819 4122 1594 4122
Q 1509 4122 1420 4097
Q 1331 4072 1203 4000
Q 1075 3928 976 3750
Q 878 3572 831 3303
Q 781 2956 781 2125
z
" transform="scale(0.015625)"/>
        <path id="CMUSerif-Roman-11" d="M 641 103
Q 544 206 544 340
Q 544 475 641 573
Q 738 672 884 672
Q 1025 672 1120 580
Q 1216 488 1216 339
Q 1216 191 1114 95
Q 1013 0 884 0
Q 738 0 641 103
z
" transform="scale(0.015625)"/>
        <path id="CMUSerif-Roman-17" d="M 178 1056
L 178 1253
L 2144 4256
Q 2194 4334 2272 4331
Q 2344 4331 2359 4303
Q 2375 4275 2375 4166
L 2375 1253
L 3016 1253
L 3016 1056
L 2375 1056
L 2375 500
Q 2375 316 2451 256
Q 2528 197 2859 197
L 2994 197
L 2994 0
Q 2731 19 2125 19
Q 1522 19 1259 0
L 1259 197
L 1394 197
Q 1725 197 1803 255
Q 1881 313 1881 500
L 1881 1056
L 178 1056
z
M 359 1253
L 1919 1253
L 1919 3641
L 359 1253
z
" transform="scale(0.015625)"/>
       </defs>
       <use xlink:href="#CMUSerif-Roman-13"/>
       <use xlink:href="#CMUSerif-Roman-11" transform="translate(50 0)"/>
       <use xlink:href="#CMUSerif-Roman-17" transform="translate(77.78125 0)"/>
      </g>
     </g>
    </g>
    <g id="xtick_2">
     <g id="line2d_3">
      <g>
       <use xlink:href="#md7ef500bb8" x="103.230167" y="328.86" style="stroke: #000000; stroke-width: 0.9"/>
      </g>
     </g>
     <g id="line2d_4">
      <g>
       <use xlink:href="#m4bd19c516c" x="103.230167" y="8.382832" style="stroke: #000000; stroke-width: 0.9"/>
      </g>
     </g>
     <g id="text_2">
      <!-- 0.5 -->
      <g transform="translate(95.588848 341.925664) scale(0.1196 -0.1196)">
       <defs>
        <path id="CMUSerif-Roman-18" d="M 319 1031
Q 319 1222 422 1295
Q 525 1369 634 1369
Q 781 1369 867 1276
Q 953 1184 953 1056
Q 953 928 867 836
Q 781 744 634 744
Q 563 744 525 756
Q 609 463 867 250
Q 1125 38 1466 38
Q 1894 38 2150 453
Q 2303 722 2303 1331
Q 2303 1869 2188 2138
Q 2009 2547 1644 2547
Q 1125 2547 819 2100
Q 781 2044 738 2041
Q 675 2041 661 2077
Q 647 2113 647 2209
L 647 4103
Q 647 4256 709 4256
Q 734 4256 788 4238
Q 1191 4059 1638 4056
Q 2097 4056 2509 4244
Q 2541 4263 2559 4263
Q 2622 4263 2625 4191
Q 2625 4166 2573 4092
Q 2522 4019 2412 3923
Q 2303 3828 2162 3737
Q 2022 3647 1817 3586
Q 1613 3525 1388 3525
Q 1119 3525 844 3609
L 844 2363
Q 1175 2688 1656 2688
Q 2169 2688 2522 2275
Q 2875 1863 2875 1288
Q 2875 684 2458 271
Q 2041 -141 1478 -141
Q 966 -141 642 225
Q 319 591 319 1031
z
" transform="scale(0.015625)"/>
       </defs>
       <use xlink:href="#CMUSerif-Roman-13"/>
       <use xlink:href="#CMUSerif-Roman-11" transform="translate(50 0)"/>
       <use xlink:href="#CMUSerif-Roman-18" transform="translate(77.78125 0)"/>
      </g>
     </g>
    </g>
    <g id="xtick_3">
     <g id="line2d_5">
      <g>
       <use xlink:href="#md7ef500bb8" x="163.0905" y="328.86" style="stroke: #000000; stroke-width: 0.9"/>
      </g>
     </g>
     <g id="line2d_6">
      <g>
       <use xlink:href="#m4bd19c516c" x="163.0905" y="8.382832" style="stroke: #000000; stroke-width: 0.9"/>
      </g>
     </g>
     <g id="text_3">
      <!-- 0.6 -->
      <g transform="translate(155.449182 341.925664) scale(0.1196 -0.1196)">
       <defs>
        <path id="CMUSerif-Roman-19" d="M 269 2022
Q 269 3028 781 3645
Q 1294 4263 1953 4263
Q 2338 4263 2552 4067
Q 2766 3872 2766 3572
Q 2766 3406 2669 3334
Q 2572 3263 2472 3263
Q 2356 3263 2265 3341
Q 2175 3419 2175 3559
Q 2175 3847 2528 3847
Q 2363 4103 1966 4103
Q 1844 4103 1719 4067
Q 1594 4031 1431 3912
Q 1269 3794 1144 3606
Q 1019 3419 931 3066
Q 844 2713 844 2253
L 844 2100
Q 1106 2734 1643 2732
Q 2181 2731 2553 2322
Q 2925 1913 2925 1306
Q 2925 684 2537 271
Q 2150 -141 1606 -141
Q 1363 -141 1142 -39
Q 922 63 717 294
Q 513 525 391 969
Q 269 1413 269 2022
z
M 856 1447
Q 856 819 972 519
Q 991 469 1033 400
Q 1075 331 1148 242
Q 1222 153 1344 95
Q 1466 38 1606 38
Q 2034 38 2241 453
Q 2350 684 2350 1313
Q 2350 1953 2234 2188
Q 2038 2584 1638 2584
Q 1369 2584 1183 2400
Q 997 2216 926 1969
Q 856 1722 856 1447
z
" transform="scale(0.015625)"/>
       </defs>
       <use xlink:href="#CMUSerif-Roman-13"/>
       <use xlink:href="#CMUSerif-Roman-11" transform="translate(50 0)"/>
       <use xlink:href="#CMUSerif-Roman-19" transform="translate(77.78125 0)"/>
      </g>
     </g>
    </g>
    <g id="xtick_4">
     <g id="line2d_7">
      <g>
       <use xlink:href="#md7ef500bb8" x="222.950834" y="328.86" style="stroke: #000000; stroke-width: 0.9"/>
      </g>
     </g>
     <g id="line2d_8">
      <g>
       <use xlink:href="#m4bd19c516c" x="222.950834" y="8.382832" style="stroke: #000000; stroke-width: 0.9"/>
      </g>
     </g>
     <g id="text_4">
      <!-- 0.7 -->
      <g transform="translate(215.309515 341.925664) scale(0.1196 -0.1196)">
       <defs>
        <path id="CMUSerif-Roman-1a" d="M 359 3009
L 569 4325
L 728 4325
Q 747 4247 780 4212
Q 813 4178 995 4150
Q 1178 4122 1550 4122
L 3103 4122
Q 3103 3975 3047 3897
L 2181 2681
Q 1906 2297 1784 1588
Q 1713 1113 1716 538
L 1716 213
Q 1716 -141 1420 -141
Q 1125 -141 1125 213
Q 1125 1434 1913 2619
Q 1997 2741 2308 3175
Q 2619 3609 2631 3628
L 1306 3628
Q 725 3628 678 3591
Q 616 3534 519 3009
L 359 3009
z
" transform="scale(0.015625)"/>
       </defs>
       <use xlink:href="#CMUSerif-Roman-13"/>
       <use xlink:href="#CMUSerif-Roman-11" transform="translate(50 0)"/>
       <use xlink:href="#CMUSerif-Roman-1a" transform="translate(77.78125 0)"/>
      </g>
     </g>
    </g>
    <g id="xtick_5">
     <g id="line2d_9">
      <g>
       <use xlink:href="#md7ef500bb8" x="282.811167" y="328.86" style="stroke: #000000; stroke-width: 0.9"/>
      </g>
     </g>
     <g id="line2d_10">
      <g>
       <use xlink:href="#m4bd19c516c" x="282.811167" y="8.382832" style="stroke: #000000; stroke-width: 0.9"/>
      </g>
     </g>
     <g id="text_5">
      <!-- 0.8 -->
      <g transform="translate(275.169848 341.925664) scale(0.1196 -0.1196)">
       <defs>
        <path id="CMUSerif-Roman-1b" d="M 269 966
Q 269 1681 1191 2144
Q 794 2413 722 2491
Q 441 2803 441 3194
Q 441 3641 780 3952
Q 1119 4263 1600 4263
Q 2059 4263 2406 3997
Q 2753 3731 2753 3309
Q 2753 2716 1978 2316
Q 2491 1997 2613 1863
Q 2925 1516 2925 1075
Q 2925 563 2531 211
Q 2138 -141 1594 -141
Q 1063 -141 666 168
Q 269 478 269 966
z
M 588 966
Q 588 569 886 303
Q 1184 38 1600 38
Q 2003 38 2304 269
Q 2606 500 2606 844
Q 2606 978 2561 1093
Q 2516 1209 2427 1301
Q 2338 1394 2283 1436
Q 2228 1478 2125 1550
L 1338 2047
Q 588 1631 588 966
z
M 722 3444
Q 722 3138 1044 2925
L 1838 2413
Q 2472 2784 2472 3309
Q 2472 3650 2212 3876
Q 1953 4103 1594 4103
Q 1241 4103 981 3917
Q 722 3731 722 3444
z
" transform="scale(0.015625)"/>
       </defs>
       <use xlink:href="#CMUSerif-Roman-13"/>
       <use xlink:href="#CMUSerif-Roman-11" transform="translate(50 0)"/>
       <use xlink:href="#CMUSerif-Roman-1b" transform="translate(77.78125 0)"/>
      </g>
     </g>
    </g>
    <g id="xtick_6">
     <g id="line2d_11">
      <g>
       <use xlink:href="#md7ef500bb8" x="342.6715" y="328.86" style="stroke: #000000; stroke-width: 0.9"/>
      </g>
     </g>
     <g id="line2d_12">
      <g>
       <use xlink:href="#m4bd19c516c" x="342.6715" y="8.382832" style="stroke: #000000; stroke-width: 0.9"/>
      </g>
     </g>
     <g id="text_6">
      <!-- 0.9 -->
      <g transform="translate(335.030181 341.925664) scale(0.1196 -0.1196)">
       <defs>
        <path id="CMUSerif-Roman-1c" d="M 269 2822
Q 269 3163 369 3395
Q 469 3628 678 3859
Q 1063 4263 1619 4263
Q 1856 4263 2067 4163
Q 2278 4063 2479 3836
Q 2681 3609 2803 3164
Q 2925 2719 2925 2106
Q 2925 1116 2445 487
Q 1966 -141 1319 -141
Q 909 -141 668 45
Q 428 231 428 550
Q 428 716 522 786
Q 616 856 722 856
Q 838 856 928 779
Q 1019 703 1019 563
Q 1019 447 945 358
Q 872 269 684 269
Q 869 38 1313 38
Q 1472 38 1631 111
Q 1791 184 1964 364
Q 2138 544 2244 922
Q 2350 1300 2350 1831
L 2350 2034
Q 2094 1394 1550 1394
Q 1013 1394 641 1806
Q 269 2219 269 2822
z
M 844 2816
Q 844 2181 959 1947
Q 1156 1544 1556 1544
Q 1947 1544 2142 1892
Q 2338 2241 2338 2694
Q 2338 3322 2234 3597
Q 2044 4103 1620 4103
Q 1197 4103 978 3700
Q 844 3463 844 2816
z
" transform="scale(0.015625)"/>
       </defs>
       <use xlink:href="#CMUSerif-Roman-13"/>
       <use xlink:href="#CMUSerif-Roman-11" transform="translate(50 0)"/>
       <use xlink:href="#CMUSerif-Roman-1c" transform="translate(77.78125 0)"/>
      </g>
     </g>
    </g>
    <g id="xtick_7">
     <g id="line2d_13">
      <g>
       <use xlink:href="#md7ef500bb8" x="402.531833" y="328.86" style="stroke: #000000; stroke-width: 0.9"/>
      </g>
     </g>
     <g id="line2d_14">
      <g>
       <use xlink:href="#m4bd19c516c" x="402.531833" y="8.382832" style="stroke: #000000; stroke-width: 0.9"/>
      </g>
     </g>
     <g id="text_7">
      <!-- 1.0 -->
      <g transform="translate(394.890515 341.925664) scale(0.1196 -0.1196)">
       <defs>
        <path id="CMUSerif-Roman-14" d="M 569 3653
L 569 3853
Q 1338 3853 1734 4263
Q 1844 4263 1862 4238
Q 1881 4213 1881 4097
L 1881 506
Q 1881 316 1975 256
Q 2069 197 2478 197
L 2681 197
L 2681 0
Q 2456 19 1643 19
Q 831 19 609 0
L 609 197
L 813 197
Q 1216 197 1312 255
Q 1409 313 1409 506
L 1409 3822
Q 1075 3653 569 3653
z
" transform="scale(0.015625)"/>
       </defs>
       <use xlink:href="#CMUSerif-Roman-14"/>
       <use xlink:href="#CMUSerif-Roman-11" transform="translate(50 0)"/>
       <use xlink:href="#CMUSerif-Roman-13" transform="translate(77.78125 0)"/>
      </g>
     </g>
    </g>
    <g id="xtick_8">
     <g id="line2d_15">
      <g>
       <use xlink:href="#md7ef500bb8" x="462.392167" y="328.86" style="stroke: #000000; stroke-width: 0.9"/>
      </g>
     </g>
     <g id="line2d_16">
      <g>
       <use xlink:href="#m4bd19c516c" x="462.392167" y="8.382832" style="stroke: #000000; stroke-width: 0.9"/>
      </g>
     </g>
     <g id="text_8">
      <!-- 1.1 -->
      <g transform="translate(454.750848 341.925664) scale(0.1196 -0.1196)">
       <use xlink:href="#CMUSerif-Roman-14"/>
       <use xlink:href="#CMUSerif-Roman-11" transform="translate(50 0)"/>
       <use xlink:href="#CMUSerif-Roman-14" transform="translate(77.78125 0)"/>
      </g>
     </g>
    </g>
    <g id="xtick_9">
     <g id="line2d_17">
      <g>
       <use xlink:href="#md7ef500bb8" x="522.2525" y="328.86" style="stroke: #000000; stroke-width: 0.9"/>
      </g>
     </g>
     <g id="line2d_18">
      <g>
       <use xlink:href="#m4bd19c516c" x="522.2525" y="8.382832" style="stroke: #000000; stroke-width: 0.9"/>
      </g>
     </g>
     <g id="text_9">
      <!-- 1.2 -->
      <g transform="translate(514.611181 341.925664) scale(0.1196 -0.1196)">
       <defs>
        <path id="CMUSerif-Roman-15" d="M 319 0
Q 319 116 330 150
Q 341 184 391 238
L 1619 1606
Q 2291 2363 2291 3022
Q 2291 3450 2067 3756
Q 1844 4063 1434 4063
Q 1153 4063 915 3891
Q 678 3719 569 3413
Q 588 3419 653 3419
Q 813 3419 902 3319
Q 991 3219 991 3084
Q 991 2913 880 2830
Q 769 2747 659 2747
Q 616 2747 558 2756
Q 500 2766 409 2855
Q 319 2944 319 3103
Q 319 3550 658 3906
Q 997 4263 1516 4263
Q 2103 4263 2489 3914
Q 2875 3566 2875 3022
Q 2875 2831 2817 2657
Q 2759 2484 2682 2350
Q 2606 2216 2400 2000
Q 2194 1784 2028 1631
Q 1863 1478 1491 1153
L 813 494
L 1966 494
Q 2528 494 2572 544
Q 2634 634 2713 1113
L 2875 1113
L 2694 0
L 319 0
z
" transform="scale(0.015625)"/>
       </defs>
       <use xlink:href="#CMUSerif-Roman-14"/>
       <use xlink:href="#CMUSerif-Roman-11" transform="translate(50 0)"/>
       <use xlink:href="#CMUSerif-Roman-15" transform="translate(77.78125 0)"/>
      </g>
     </g>
    </g>
    <g id="text_10">
     <!-- Inlet N$_2$ flow, $F_{\mathrm{N_2,in}}$ (mol h$^{-1}$) -->
     <g transform="translate(191.697417 360.332) scale(0.1365 -0.1365)">
      <defs>
       <path id="CMUSerif-Roman-2c" d="M 178 0
L 178 197
L 347 197
Q 706 197 789 255
Q 872 313 872 500
L 872 3872
Q 872 4056 787 4114
Q 703 4172 347 4172
L 178 4172
L 178 4372
Q 403 4353 1159 4353
Q 1909 4353 2131 4372
L 2131 4172
L 1966 4172
Q 1606 4172 1523 4114
Q 1441 4056 1441 3872
L 1441 500
Q 1441 316 1523 256
Q 1606 197 1966 197
L 2131 197
L 2131 0
Q 1906 19 1153 19
Q 403 19 178 0
z
" transform="scale(0.015625)"/>
       <path id="CMUSerif-Roman-51" d="M 206 0
L 206 197
Q 547 197 625 239
Q 703 281 703 488
L 703 2203
Q 703 2441 620 2500
Q 538 2559 206 2559
L 206 2759
L 1106 2828
L 1106 2156
Q 1406 2828 2053 2828
Q 2534 2828 2725 2591
Q 2866 2431 2895 2253
Q 2925 2075 2925 1613
L 2925 391
Q 2931 256 3034 226
Q 3138 197 3425 197
L 3425 0
Q 2772 19 2706 19
Q 2656 19 1984 0
L 1984 197
Q 2325 197 2404 239
Q 2484 281 2484 488
L 2484 1978
Q 2484 2303 2384 2495
Q 2284 2688 2009 2688
Q 1678 2688 1412 2409
Q 1147 2131 1147 1663
L 1147 488
Q 1147 281 1226 239
Q 1306 197 1644 197
L 1644 0
Q 991 19 928 19
Q 878 19 206 0
z
" transform="scale(0.015625)"/>
       <path id="CMUSerif-Roman-4f" d="M 213 0
L 213 197
Q 553 197 631 239
Q 709 281 709 488
L 709 3816
Q 709 4053 626 4112
Q 544 4172 213 4172
L 213 4372
L 1131 4441
L 1131 488
Q 1131 281 1212 239
Q 1294 197 1631 197
L 1631 0
Q 1553 0 1390 6
Q 1228 13 1109 16
Q 991 19 922 19
Q 847 19 213 0
z
" transform="scale(0.015625)"/>
       <path id="CMUSerif-Roman-48" d="M 178 1409
Q 178 2013 565 2441
Q 953 2869 1509 2869
Q 2072 2869 2364 2503
Q 2656 2138 2656 1613
Q 2656 1516 2631 1497
Q 2606 1478 2497 1478
L 709 1478
Q 709 825 903 519
Q 1172 91 1625 91
Q 1688 91 1763 103
Q 1838 116 1991 170
Q 2144 225 2278 372
Q 2413 519 2491 750
Q 2509 841 2572 838
Q 2656 838 2656 763
Q 2656 706 2595 579
Q 2534 453 2418 303
Q 2303 153 2079 40
Q 1856 -72 1588 -72
Q 1025 -72 601 354
Q 178 781 178 1409
z
M 716 1613
L 2234 1613
Q 2234 1747 2211 1897
Q 2188 2047 2120 2255
Q 2053 2463 1897 2594
Q 1741 2725 1509 2725
Q 1406 2725 1295 2681
Q 1184 2638 1050 2531
Q 916 2425 822 2184
Q 728 1944 716 1613
z
" transform="scale(0.015625)"/>
       <path id="CMUSerif-Roman-57" d="M 122 2559
L 122 2700
Q 416 2713 611 2920
Q 806 3128 873 3384
Q 941 3641 947 3938
L 1106 3938
L 1106 2759
L 2022 2759
L 2022 2559
L 1106 2559
L 1106 781
Q 1106 91 1538 91
Q 1722 91 1844 280
Q 1966 469 1966 806
L 1966 1159
L 2125 1159
L 2125 794
Q 2125 447 1965 187
Q 1806 -72 1491 -72
Q 1375 -72 1261 -42
Q 1147 -13 998 64
Q 850 141 758 330
Q 666 519 666 794
L 666 2559
L 122 2559
z
" transform="scale(0.015625)"/>
       <path id="CMUSerif-Roman-3" transform="scale(0.015625)"/>
       <path id="CMUSerif-Roman-31" d="M 213 0
L 213 197
Q 444 197 591 242
Q 738 288 791 373
Q 844 459 858 517
Q 872 575 872 672
L 872 4013
Q 872 4103 848 4125
Q 825 4147 716 4159
Q 525 4172 397 4172
L 213 4172
L 213 4372
L 1300 4372
Q 1391 4372 1416 4359
Q 1441 4347 1484 4288
L 3744 966
L 3744 3700
Q 3744 3797 3731 3853
Q 3719 3909 3664 3996
Q 3609 4084 3462 4128
Q 3316 4172 3084 4172
L 3084 4372
Q 3756 4353 3832 4353
Q 3909 4353 4581 4372
L 4581 4172
Q 4350 4172 4203 4128
Q 4056 4084 4003 3996
Q 3950 3909 3936 3851
Q 3922 3794 3922 3700
L 3922 166
Q 3922 63 3909 31
Q 3897 0 3834 0
Q 3791 0 3725 84
L 1113 3922
Q 1088 3959 1050 4000
L 1050 672
Q 1050 575 1062 517
Q 1075 459 1129 373
Q 1184 288 1331 242
Q 1478 197 1709 197
L 1709 0
Q 1038 19 961 19
Q 884 19 213 0
z
" transform="scale(0.015625)"/>
       <path id="Cmr10-31" d="M 319 0
L 319 172
Q 319 188 331 206
L 1325 1306
Q 1550 1550 1690 1715
Q 1831 1881 1968 2097
Q 2106 2313 2186 2536
Q 2266 2759 2266 3009
Q 2266 3272 2169 3511
Q 2072 3750 1880 3894
Q 1688 4038 1416 4038
Q 1138 4038 916 3870
Q 694 3703 603 3438
Q 628 3444 672 3444
Q 816 3444 917 3347
Q 1019 3250 1019 3097
Q 1019 2950 917 2848
Q 816 2747 672 2747
Q 522 2747 420 2851
Q 319 2956 319 3097
Q 319 3338 409 3548
Q 500 3759 670 3923
Q 841 4088 1055 4175
Q 1269 4263 1509 4263
Q 1875 4263 2190 4108
Q 2506 3953 2690 3670
Q 2875 3388 2875 3009
Q 2875 2731 2753 2481
Q 2631 2231 2440 2026
Q 2250 1822 1953 1562
Q 1656 1303 1563 1216
L 838 519
L 1453 519
Q 1906 519 2211 526
Q 2516 534 2534 550
Q 2609 631 2688 1141
L 2875 1141
L 2694 0
L 319 0
z
" transform="scale(0.015625)"/>
       <path id="CMUSerif-Roman-49" d="M 213 2559
L 213 2759
L 716 2759
L 716 3494
Q 716 3969 1023 4241
Q 1331 4513 1709 4513
Q 1959 4513 2121 4378
Q 2284 4244 2284 4063
Q 2284 3941 2211 3861
Q 2138 3781 2003 3781
Q 1875 3781 1801 3862
Q 1728 3944 1728 4056
Q 1728 4263 1919 4325
Q 1822 4369 1709 4372
Q 1478 4372 1298 4134
Q 1119 3897 1119 3500
L 1119 2759
L 1869 2759
L 1869 2559
L 1141 2559
L 1141 500
Q 1141 316 1217 256
Q 1294 197 1625 197
L 1759 197
L 1759 0
Q 1503 19 947 19
Q 869 19 748 16
Q 628 13 467 6
Q 306 0 219 0
L 219 197
Q 559 197 637 239
Q 716 281 716 488
L 716 2559
L 213 2559
z
" transform="scale(0.015625)"/>
       <path id="CMUSerif-Roman-52" d="M 601 345
Q 178 763 178 1370
Q 178 1978 592 2423
Q 1006 2869 1600 2869
Q 2181 2869 2598 2426
Q 3016 1984 3016 1369
Q 3016 766 2595 347
Q 2175 -72 1594 -72
Q 1025 -72 601 345
z
M 709 1422
Q 709 800 872 519
Q 1122 91 1600 91
Q 1838 91 2036 219
Q 2234 347 2344 563
Q 2484 844 2484 1422
Q 2484 2038 2316 2309
Q 2066 2725 1594 2725
Q 1388 2725 1186 2617
Q 984 2509 863 2297
Q 709 2016 709 1422
z
" transform="scale(0.015625)"/>
       <path id="CMUSerif-Roman-5a" d="M 116 2559
L 116 2759
Q 463 2741 709 2741
Q 831 2741 1409 2759
L 1409 2559
Q 1031 2559 1031 2388
Q 1031 2350 1063 2272
L 1672 563
L 2222 2113
Q 2106 2425 2075 2463
Q 1997 2559 1672 2559
L 1672 2759
Q 1959 2741 2241 2741
Q 2350 2741 2906 2759
L 2906 2559
Q 2528 2559 2528 2388
Q 2528 2363 2559 2266
L 3194 481
L 3775 2119
Q 3806 2203 3809 2253
Q 3809 2394 3709 2473
Q 3609 2553 3438 2559
L 3438 2759
Q 3803 2741 4031 2741
Q 4288 2741 4500 2759
L 4500 2559
Q 4103 2547 3963 2150
L 3213 50
Q 3141 -66 3084 -72
Q 3000 -72 2956 50
L 2303 1869
L 1656 56
Q 1631 -22 1609 -47
Q 1588 -72 1530 -72
Q 1472 -72 1447 -39
Q 1422 -6 1394 72
L 588 2338
Q 531 2484 448 2521
Q 366 2559 116 2559
z
" transform="scale(0.015625)"/>
       <path id="CMUSerif-Roman-f" d="M 640 103
Q 550 206 550 340
Q 550 475 639 576
Q 728 678 891 678
Q 1081 678 1190 495
Q 1300 313 1300 6
Q 1300 -325 1165 -633
Q 1031 -941 900 -1087
Q 769 -1234 716 -1234
Q 653 -1234 653 -1166
Q 653 -1141 697 -1094
Q 1156 -600 1159 6
Q 1159 103 1147 103
L 1131 91
Q 1022 0 891 0
Q 731 0 640 103
z
" transform="scale(0.015625)"/>
       <path id="Cmmi10-42" d="M 300 0
Q 238 0 238 84
Q 241 100 250 139
Q 259 178 276 201
Q 294 225 319 225
Q 709 225 863 269
Q 947 297 984 441
L 1863 3956
Q 1875 4019 1875 4044
Q 1875 4113 1797 4122
Q 1678 4147 1338 4147
Q 1275 4147 1275 4231
Q 1278 4247 1287 4286
Q 1297 4325 1314 4348
Q 1331 4372 1356 4372
L 4738 4372
Q 4800 4372 4800 4288
L 4647 2963
Q 4647 2944 4625 2925
Q 4603 2906 4581 2906
L 4525 2906
Q 4459 2906 4459 2988
Q 4500 3278 4500 3463
Q 4500 3781 4362 3931
Q 4225 4081 4015 4114
Q 3806 4147 3438 4147
L 2753 4147
Q 2578 4147 2522 4117
Q 2466 4088 2419 3928
L 2009 2297
L 2491 2297
Q 2728 2297 2875 2322
Q 3022 2347 3119 2419
Q 3216 2491 3280 2627
Q 3344 2763 3397 2988
Q 3416 3047 3463 3047
L 3519 3047
Q 3584 3047 3584 2963
L 3194 1381
Q 3166 1325 3128 1325
L 3072 1325
Q 3009 1325 3009 1409
Q 3025 1475 3034 1519
Q 3044 1563 3058 1645
Q 3072 1728 3072 1791
Q 3072 1975 2909 2025
Q 2747 2075 2484 2075
L 1959 2075
L 1544 416
Q 1528 353 1528 353
Q 1528 278 1575 269
Q 1741 225 2228 225
Q 2291 225 2291 141
Q 2269 50 2256 25
Q 2244 0 2181 0
L 300 0
z
" transform="scale(0.015625)"/>
       <path id="Cmr10-57" d="M 197 0
L 197 225
Q 856 225 856 603
L 856 4109
Q 647 4147 197 4147
L 197 4372
L 1422 4372
Q 1453 4372 1466 4347
L 3731 1013
L 3731 3769
Q 3731 4147 3072 4147
L 3072 4372
L 4594 4372
L 4594 4147
Q 3938 4147 3938 3769
L 3938 56
Q 3938 38 3913 19
Q 3888 0 3872 0
L 3794 0
Q 3763 0 3750 25
L 1063 3981
L 1063 603
Q 1063 225 1722 225
L 1722 0
L 197 0
z
" transform="scale(0.015625)"/>
       <path id="Cmmi10-2c" d="M 634 -1153
Q 634 -1125 659 -1100
Q 891 -878 1019 -587
Q 1147 -297 1147 25
L 1147 103
Q 1044 0 891 0
Q 744 0 641 103
Q 538 206 538 353
Q 538 503 641 603
Q 744 703 891 703
Q 1119 703 1216 492
Q 1313 281 1313 25
Q 1313 -331 1170 -651
Q 1028 -972 769 -1228
Q 744 -1241 728 -1241
Q 697 -1241 665 -1212
Q 634 -1184 634 -1153
z
" transform="scale(0.015625)"/>
       <path id="Cmr10-24" d="M 197 0
L 197 225
Q 416 225 556 259
Q 697 294 697 428
L 697 2175
Q 697 2422 601 2478
Q 506 2534 225 2534
L 225 2759
L 1147 2828
L 1147 428
Q 1147 294 1269 259
Q 1391 225 1594 225
L 1594 0
L 197 0
z
M 469 3928
Q 469 4069 575 4175
Q 681 4281 819 4281
Q 909 4281 993 4234
Q 1078 4188 1125 4103
Q 1172 4019 1172 3928
Q 1172 3791 1065 3684
Q 959 3578 819 3578
Q 681 3578 575 3684
Q 469 3791 469 3928
z
" transform="scale(0.015625)"/>
       <path id="Cmr10-74" d="M 191 0
L 191 225
Q 409 225 550 259
Q 691 294 691 428
L 691 2175
Q 691 2347 639 2423
Q 588 2500 491 2517
Q 394 2534 191 2534
L 191 2759
L 1119 2828
L 1119 2203
Q 1247 2478 1498 2653
Q 1750 2828 2047 2828
Q 2491 2828 2714 2615
Q 2938 2403 2938 1966
L 2938 428
Q 2938 294 3078 259
Q 3219 225 3438 225
L 3438 0
L 1972 0
L 1972 225
Q 2191 225 2331 259
Q 2472 294 2472 428
L 2472 1947
Q 2472 2259 2381 2461
Q 2291 2663 2009 2663
Q 1638 2663 1398 2366
Q 1159 2069 1159 1691
L 1159 428
Q 1159 294 1300 259
Q 1441 225 1656 225
L 1656 0
L 191 0
z
" transform="scale(0.015625)"/>
       <path id="CMUSerif-Roman-b" d="M 634 1600
Q 634 2681 1038 3553
Q 1209 3919 1450 4225
Q 1691 4531 1850 4665
Q 2009 4800 2053 4800
Q 2116 4800 2119 4738
Q 2119 4706 2034 4628
Q 1003 3578 1006 1600
Q 1006 -384 2009 -1394
Q 2119 -1503 2119 -1538
Q 2119 -1600 2053 -1600
Q 2009 -1600 1856 -1472
Q 1703 -1344 1465 -1050
Q 1228 -756 1056 -397
Q 634 475 634 1600
z
" transform="scale(0.015625)"/>
       <path id="CMUSerif-Roman-50" d="M 206 0
L 206 197
Q 547 197 625 239
Q 703 281 703 488
L 703 2203
Q 703 2441 620 2500
Q 538 2559 206 2559
L 206 2759
L 1106 2828
L 1106 2156
Q 1406 2828 2053 2828
Q 2803 2828 2906 2203
Q 3016 2447 3245 2637
Q 3475 2828 3834 2828
Q 4316 2828 4506 2591
Q 4647 2431 4675 2253
Q 4703 2075 4703 1613
L 4703 391
Q 4709 256 4812 226
Q 4916 197 5203 197
L 5203 0
Q 4550 19 4488 19
Q 4438 19 3763 0
L 3763 197
Q 4103 197 4183 239
Q 4263 281 4263 488
L 4263 1978
Q 4263 2303 4163 2495
Q 4063 2688 3788 2688
Q 3456 2688 3190 2409
Q 2925 2131 2925 1663
L 2925 488
Q 2925 281 3004 239
Q 3084 197 3425 197
L 3425 0
Q 2772 19 2706 19
Q 2656 19 1984 0
L 1984 197
Q 2325 197 2404 239
Q 2484 281 2484 488
L 2484 1978
Q 2484 2303 2384 2495
Q 2284 2688 2009 2688
Q 1678 2688 1412 2409
Q 1147 2131 1147 1663
L 1147 488
Q 1147 281 1226 239
Q 1306 197 1644 197
L 1644 0
Q 991 19 928 19
Q 878 19 206 0
z
" transform="scale(0.015625)"/>
       <path id="CMUSerif-Roman-4b" d="M 206 0
L 206 197
Q 547 197 625 239
Q 703 281 703 488
L 703 3816
Q 703 4053 620 4112
Q 538 4172 206 4172
L 206 4372
L 1125 4441
L 1125 2216
L 1131 2216
Q 1234 2447 1465 2637
Q 1697 2828 2053 2828
Q 2534 2828 2725 2591
Q 2866 2431 2895 2253
Q 2925 2075 2925 1613
L 2925 391
Q 2931 256 3034 226
Q 3138 197 3425 197
L 3425 0
Q 2772 19 2706 19
Q 2656 19 1984 0
L 1984 197
Q 2325 197 2404 239
Q 2484 281 2484 488
L 2484 1978
Q 2484 2303 2384 2495
Q 2284 2688 2009 2688
Q 1678 2688 1412 2409
Q 1147 2131 1147 1663
L 1147 488
Q 1147 281 1226 239
Q 1306 197 1644 197
L 1644 0
Q 991 19 928 19
Q 878 19 206 0
z
" transform="scale(0.015625)"/>
       <path id="Cmsy10-11" d="M 653 1472
Q 600 1472 565 1512
Q 531 1553 531 1600
Q 531 1647 565 1687
Q 600 1728 653 1728
L 4325 1728
Q 4375 1728 4408 1687
Q 4441 1647 4441 1600
Q 4441 1553 4408 1512
Q 4375 1472 4325 1472
L 653 1472
z
" transform="scale(0.015625)"/>
       <path id="Cmr10-64" d="M 594 0
L 594 225
Q 1394 225 1394 428
L 1394 3788
Q 1063 3628 556 3628
L 556 3853
Q 1341 3853 1741 4263
L 1831 4263
Q 1853 4263 1873 4245
Q 1894 4228 1894 4206
L 1894 428
Q 1894 225 2694 225
L 2694 0
L 594 0
z
" transform="scale(0.015625)"/>
       <path id="CMUSerif-Roman-c" d="M 366 -1538
Q 366 -1506 447 -1428
Q 1478 -378 1478 1600
Q 1478 3584 488 4588
Q 366 4703 366 4738
Q 366 4800 428 4800
Q 472 4800 626 4672
Q 781 4544 1017 4250
Q 1253 3956 1428 3597
Q 1850 2725 1850 1600
Q 1850 519 1447 -353
Q 1275 -719 1034 -1025
Q 794 -1331 634 -1465
Q 475 -1600 428 -1600
Q 366 -1600 366 -1538
z
" transform="scale(0.015625)"/>
      </defs>
      <use xlink:href="#CMUSerif-Roman-2c" transform="translate(0 0.084203)"/>
      <use xlink:href="#CMUSerif-Roman-51" transform="translate(36.083984 0.084203)"/>
      <use xlink:href="#CMUSerif-Roman-4f" transform="translate(91.552734 0.084203)"/>
      <use xlink:href="#CMUSerif-Roman-48" transform="translate(119.238281 0.084203)"/>
      <use xlink:href="#CMUSerif-Roman-57" transform="translate(163.623047 0.084203)"/>
      <use xlink:href="#CMUSerif-Roman-3" transform="translate(202.392578 0.084203)"/>
      <use xlink:href="#CMUSerif-Roman-31" transform="translate(235.644531 0.084203)"/>
      <use xlink:href="#Cmr10-31" transform="translate(314.648822 -14.915759) scale(0.7)"/>
      <use xlink:href="#CMUSerif-Roman-3" transform="translate(355.369238 0.084203)"/>
      <use xlink:href="#CMUSerif-Roman-49" transform="translate(388.621191 0.084203)"/>
      <use xlink:href="#CMUSerif-Roman-4f" transform="translate(419.089941 0.084203)"/>
      <use xlink:href="#CMUSerif-Roman-52" transform="translate(446.775488 0.084203)"/>
      <use xlink:href="#CMUSerif-Roman-5a" transform="translate(496.775488 0.084203)"/>
      <use xlink:href="#CMUSerif-Roman-f" transform="translate(568.943456 0.084203)"/>
      <use xlink:href="#CMUSerif-Roman-3" transform="translate(596.629003 0.084203)"/>
      <use xlink:href="#Cmmi10-42" transform="translate(629.880956 0.084203)"/>
      <use xlink:href="#Cmr10-57" transform="translate(694.187597 -14.915759) scale(0.7)"/>
      <use xlink:href="#Cmr10-31" transform="translate(749.490601 -25.415732) scale(0.49)"/>
      <use xlink:href="#Cmmi10-2c" transform="translate(777.994891 -14.915759) scale(0.7)"/>
      <use xlink:href="#Cmr10-24" transform="translate(811.374814 -14.915759) scale(0.7)"/>
      <use xlink:href="#Cmr10-74" transform="translate(830.754697 -14.915759) scale(0.7)"/>
      <use xlink:href="#CMUSerif-Roman-3" transform="translate(875.337417 0.084203)"/>
      <use xlink:href="#CMUSerif-Roman-b" transform="translate(908.58937 0.084203)"/>
      <use xlink:href="#CMUSerif-Roman-50" transform="translate(947.358902 0.084203)"/>
      <use xlink:href="#CMUSerif-Roman-52" transform="translate(1030.610855 0.084203)"/>
      <use xlink:href="#CMUSerif-Roman-4f" transform="translate(1080.610855 0.084203)"/>
      <use xlink:href="#CMUSerif-Roman-3" transform="translate(1108.296402 0.084203)"/>
      <use xlink:href="#CMUSerif-Roman-4b" transform="translate(1141.548355 0.084203)"/>
      <use xlink:href="#Cmsy10-11" transform="translate(1201.021396 41.373437) scale(0.7)"/>
      <use xlink:href="#Cmr10-64" transform="translate(1255.401278 41.373437) scale(0.7)"/>
      <use xlink:href="#CMUSerif-Roman-c" transform="translate(1296.121694 0.084203)"/>
     </g>
    </g>
   </g>
   <g id="matplotlib.axis_2">
    <g id="ytick_1">
     <g id="line2d_19">
      <path d="M 43.369834 328.86
L 522.2525 328.86
" clip-path="url(#p1bec0ceef9)" style="fill: none; stroke: #eaeaea; stroke-width: 0.8; stroke-linecap: square"/>
     </g>
     <g id="line2d_20">
      <defs>
       <path id="med614d628f" d="M 0 0
L 4.8 0
" style="stroke: #000000; stroke-width: 0.9"/>
      </defs>
      <g>
       <use xlink:href="#med614d628f" x="43.369834" y="328.86" style="stroke: #000000; stroke-width: 0.9"/>
      </g>
     </g>
     <g id="line2d_21">
      <defs>
       <path id="m09560c1b69" d="M 0 0
L -4.8 0
" style="stroke: #000000; stroke-width: 0.9"/>
      </defs>
      <g>
       <use xlink:href="#m09560c1b69" x="522.2525" y="328.86" style="stroke: #000000; stroke-width: 0.9"/>
      </g>
     </g>
     <g id="text_11">
      <!-- 0 -->
      <g transform="translate(33.889834 333.642832) scale(0.1196 -0.1196)">
       <use xlink:href="#CMUSerif-Roman-13"/>
      </g>
     </g>
    </g>
    <g id="ytick_2">
     <g id="line2d_22">
      <path d="M 43.369834 264.764566
L 522.2525 264.764566
" clip-path="url(#p1bec0ceef9)" style="fill: none; stroke: #eaeaea; stroke-width: 0.8; stroke-linecap: square"/>
     </g>
     <g id="line2d_23">
      <g>
       <use xlink:href="#med614d628f" x="43.369834" y="264.764566" style="stroke: #000000; stroke-width: 0.9"/>
      </g>
     </g>
     <g id="line2d_24">
      <g>
       <use xlink:href="#m09560c1b69" x="522.2525" y="264.764566" style="stroke: #000000; stroke-width: 0.9"/>
      </g>
     </g>
     <g id="text_12">
      <!-- 20 -->
      <g transform="translate(27.909834 269.547398) scale(0.1196 -0.1196)">
       <use xlink:href="#CMUSerif-Roman-15"/>
       <use xlink:href="#CMUSerif-Roman-13" transform="translate(50 0)"/>
      </g>
     </g>
    </g>
    <g id="ytick_3">
     <g id="line2d_25">
      <path d="M 43.369834 200.669133
L 522.2525 200.669133
" clip-path="url(#p1bec0ceef9)" style="fill: none; stroke: #eaeaea; stroke-width: 0.8; stroke-linecap: square"/>
     </g>
     <g id="line2d_26">
      <g>
       <use xlink:href="#med614d628f" x="43.369834" y="200.669133" style="stroke: #000000; stroke-width: 0.9"/>
      </g>
     </g>
     <g id="line2d_27">
      <g>
       <use xlink:href="#m09560c1b69" x="522.2525" y="200.669133" style="stroke: #000000; stroke-width: 0.9"/>
      </g>
     </g>
     <g id="text_13">
      <!-- 40 -->
      <g transform="translate(27.909834 205.451965) scale(0.1196 -0.1196)">
       <use xlink:href="#CMUSerif-Roman-17"/>
       <use xlink:href="#CMUSerif-Roman-13" transform="translate(50 0)"/>
      </g>
     </g>
    </g>
    <g id="ytick_4">
     <g id="line2d_28">
      <path d="M 43.369834 136.573699
L 522.2525 136.573699
" clip-path="url(#p1bec0ceef9)" style="fill: none; stroke: #eaeaea; stroke-width: 0.8; stroke-linecap: square"/>
     </g>
     <g id="line2d_29">
      <g>
       <use xlink:href="#med614d628f" x="43.369834" y="136.573699" style="stroke: #000000; stroke-width: 0.9"/>
      </g>
     </g>
     <g id="line2d_30">
      <g>
       <use xlink:href="#m09560c1b69" x="522.2525" y="136.573699" style="stroke: #000000; stroke-width: 0.9"/>
      </g>
     </g>
     <g id="text_14">
      <!-- 60 -->
      <g transform="translate(27.909834 141.356531) scale(0.1196 -0.1196)">
       <use xlink:href="#CMUSerif-Roman-19"/>
       <use xlink:href="#CMUSerif-Roman-13" transform="translate(50 0)"/>
      </g>
     </g>
    </g>
    <g id="ytick_5">
     <g id="line2d_31">
      <path d="M 43.369834 72.478266
L 522.2525 72.478266
" clip-path="url(#p1bec0ceef9)" style="fill: none; stroke: #eaeaea; stroke-width: 0.8; stroke-linecap: square"/>
     </g>
     <g id="line2d_32">
      <g>
       <use xlink:href="#med614d628f" x="43.369834" y="72.478266" style="stroke: #000000; stroke-width: 0.9"/>
      </g>
     </g>
     <g id="line2d_33">
      <g>
       <use xlink:href="#m09560c1b69" x="522.2525" y="72.478266" style="stroke: #000000; stroke-width: 0.9"/>
      </g>
     </g>
     <g id="text_15">
      <!-- 80 -->
      <g transform="translate(27.909834 77.261098) scale(0.1196 -0.1196)">
       <use xlink:href="#CMUSerif-Roman-1b"/>
       <use xlink:href="#CMUSerif-Roman-13" transform="translate(50 0)"/>
      </g>
     </g>
    </g>
    <g id="ytick_6">
     <g id="line2d_34">
      <path d="M 43.369834 8.382832
L 522.2525 8.382832
" clip-path="url(#p1bec0ceef9)" style="fill: none; stroke: #eaeaea; stroke-width: 0.8; stroke-linecap: square"/>
     </g>
     <g id="line2d_35">
      <g>
       <use xlink:href="#med614d628f" x="43.369834" y="8.382832" style="stroke: #000000; stroke-width: 0.9"/>
      </g>
     </g>
     <g id="line2d_36">
      <g>
       <use xlink:href="#m09560c1b69" x="522.2525" y="8.382832" style="stroke: #000000; stroke-width: 0.9"/>
      </g>
     </g>
     <g id="text_16">
      <!-- 100 -->
      <g transform="translate(21.929834 13.165664) scale(0.1196 -0.1196)">
       <use xlink:href="#CMUSerif-Roman-14"/>
       <use xlink:href="#CMUSerif-Roman-13" transform="translate(50 0)"/>
       <use xlink:href="#CMUSerif-Roman-13" transform="translate(100 0)"/>
      </g>
     </g>
    </g>
    <g id="text_17">
     <!-- Outlet CO conversion (%) -->
     <g transform="translate(14.517334 246.843381) rotate(-90) scale(0.1365 -0.1365)">
      <defs>
       <path id="CMUSerif-Roman-32" d="M 359 2169
Q 359 3147 986 3830
Q 1613 4513 2484 4513
Q 3363 4513 3989 3828
Q 4616 3144 4616 2169
Q 4616 1203 3987 531
Q 3359 -141 2484 -141
Q 1622 -141 990 528
Q 359 1197 359 2169
z
M 1019 2259
Q 1019 1666 1159 1211
Q 1300 756 1526 509
Q 1753 263 1997 144
Q 2241 25 2491 25
Q 2734 25 2973 140
Q 3213 256 3441 500
Q 3669 744 3812 1200
Q 3956 1656 3956 2259
Q 3956 2728 3856 3104
Q 3756 3481 3600 3709
Q 3444 3938 3242 4088
Q 3041 4238 2852 4295
Q 2663 4353 2484 4353
Q 2259 4353 2025 4253
Q 1791 4153 1555 3933
Q 1319 3713 1169 3280
Q 1019 2847 1019 2259
z
" transform="scale(0.015625)"/>
       <path id="CMUSerif-Roman-58" d="M 206 2559
L 206 2759
L 1147 2828
L 1147 703
Q 1147 550 1159 461
Q 1172 372 1223 269
Q 1275 166 1395 119
Q 1516 72 1709 72
Q 2056 72 2270 356
Q 2484 641 2484 1063
L 2484 2203
Q 2484 2441 2400 2500
Q 2316 2559 1984 2559
L 1984 2759
L 2925 2828
L 2925 556
Q 2925 319 3008 258
Q 3091 197 3425 197
L 3425 0
L 2503 -72
L 2503 506
Q 2234 -69 1678 -72
Q 1397 -72 1205 0
Q 1013 72 916 161
Q 819 250 767 422
Q 716 594 709 700
Q 703 806 703 1013
L 703 1972
Q 703 2406 640 2482
Q 578 2559 206 2559
z
" transform="scale(0.015625)"/>
       <path id="CMUSerif-Roman-26" d="M 359 2188
Q 359 3153 1018 3833
Q 1678 4513 2584 4513
Q 2866 4513 3116 4409
Q 3366 4306 3481 4217
Q 3597 4128 3763 3963
L 4084 4434
Q 4134 4513 4186 4513
Q 4238 4513 4247 4483
Q 4256 4453 4256 4359
L 4256 2841
Q 4256 2738 4243 2713
Q 4231 2688 4153 2688
Q 4091 2688 4077 2706
Q 4063 2725 4050 2797
Q 3953 3488 3570 3900
Q 3188 4313 2656 4313
Q 2503 4313 2333 4278
Q 2163 4244 1917 4112
Q 1672 3981 1483 3764
Q 1294 3547 1156 3136
Q 1019 2725 1019 2181
Q 1019 1644 1156 1231
Q 1294 819 1483 605
Q 1672 391 1917 259
Q 2163 128 2336 92
Q 2509 56 2663 56
Q 3213 56 3634 447
Q 4056 838 4097 1497
Q 4103 1528 4103 1542
Q 4103 1556 4109 1572
Q 4116 1588 4131 1594
Q 4147 1600 4172 1600
Q 4256 1600 4256 1491
Q 4256 881 3789 370
Q 3322 -141 2584 -141
Q 1675 -141 1017 534
Q 359 1209 359 2188
z
" transform="scale(0.015625)"/>
       <path id="CMUSerif-Roman-46" d="M 625 351
Q 219 775 219 1383
Q 219 1991 619 2430
Q 1019 2869 1606 2869
Q 1997 2869 2290 2683
Q 2584 2497 2584 2181
Q 2584 2041 2501 1961
Q 2419 1881 2291 1881
Q 2156 1881 2076 1964
Q 1997 2047 1997 2175
Q 1997 2231 2015 2287
Q 2034 2344 2104 2403
Q 2175 2463 2297 2472
Q 2069 2706 1625 2706
Q 1619 2706 1613 2706
Q 1288 2706 1019 2400
Q 750 2094 750 1394
Q 750 1028 839 761
Q 928 494 1075 356
Q 1222 219 1365 155
Q 1509 91 1650 91
Q 2278 91 2491 763
Q 2509 825 2572 825
Q 2656 825 2656 763
Q 2656 731 2631 650
Q 2606 569 2528 441
Q 2450 313 2339 202
Q 2228 91 2033 9
Q 1838 -72 1594 -72
Q 1031 -72 625 351
z
" transform="scale(0.015625)"/>
       <path id="CMUSerif-Roman-59" d="M 122 2559
L 122 2759
Q 409 2741 744 2741
Q 866 2741 1441 2759
L 1441 2559
Q 1075 2559 1075 2394
Q 1075 2369 1113 2284
L 1831 500
L 2484 2131
Q 2522 2241 2522 2284
Q 2522 2394 2448 2473
Q 2375 2553 2216 2559
L 2216 2759
Q 2541 2741 2772 2741
Q 3034 2741 3250 2759
L 3250 2559
Q 3059 2559 2925 2473
Q 2791 2388 2748 2314
Q 2706 2241 2663 2131
L 1825 50
Q 1775 -72 1691 -72
Q 1634 -72 1611 -48
Q 1588 -25 1556 50
L 634 2322
Q 572 2481 490 2520
Q 409 2559 122 2559
z
" transform="scale(0.015625)"/>
       <path id="CMUSerif-Roman-55" d="M 178 0
L 178 197
Q 519 197 598 239
Q 678 281 678 488
L 678 2203
Q 678 2441 595 2500
Q 513 2559 178 2559
L 178 2759
L 1069 2828
L 1069 2125
Q 1159 2400 1351 2614
Q 1544 2828 1856 2828
Q 2063 2828 2195 2712
Q 2328 2597 2328 2438
Q 2328 2297 2242 2226
Q 2156 2156 2053 2156
Q 1938 2156 1858 2229
Q 1778 2303 1778 2431
Q 1778 2509 1814 2570
Q 1850 2631 1878 2653
Q 1906 2675 1925 2681
Q 1913 2688 1856 2688
Q 1503 2688 1301 2336
Q 1100 1984 1100 1484
L 1100 500
Q 1100 316 1176 256
Q 1253 197 1588 197
L 1722 197
L 1722 0
Q 1466 19 909 19
Q 831 19 709 16
Q 588 13 428 6
Q 269 0 178 0
z
" transform="scale(0.015625)"/>
       <path id="CMUSerif-Roman-56" d="M 213 84
L 213 928
Q 213 1000 216 1025
Q 219 1050 237 1069
Q 256 1088 294 1088
Q 338 1088 355 1069
Q 372 1050 384 978
Q 481 538 689 305
Q 897 72 1275 72
Q 1634 72 1815 231
Q 1997 391 1997 653
Q 1997 1122 1331 1241
Q 947 1319 787 1370
Q 628 1422 488 1538
Q 213 1763 213 2081
Q 213 2400 455 2634
Q 697 2869 1234 2869
Q 1594 2869 1838 2688
Q 1909 2744 1947 2791
Q 2031 2869 2075 2869
Q 2125 2869 2134 2836
Q 2144 2803 2144 2713
L 2144 2069
Q 2144 1997 2141 1972
Q 2138 1947 2119 1930
Q 2100 1913 2059 1913
Q 1988 1913 1984 1972
Q 1934 2747 1234 2747
Q 856 2747 687 2601
Q 519 2456 519 2259
Q 519 2150 570 2067
Q 622 1984 689 1936
Q 756 1888 881 1842
Q 1006 1797 1082 1781
Q 1159 1766 1306 1734
Q 1819 1638 2034 1428
Q 2303 1159 2303 819
Q 2303 441 2047 184
Q 1791 -72 1275 -72
Q 859 -72 569 206
Q 531 169 503 136
Q 475 103 464 90
Q 453 78 450 70
Q 447 63 441 56
Q 313 -72 281 -72
Q 231 -72 222 -39
Q 213 -6 213 84
z
" transform="scale(0.015625)"/>
       <path id="CMUSerif-Roman-4c" d="M 213 0
L 213 197
Q 553 197 631 239
Q 709 281 709 488
L 709 2209
Q 709 2447 629 2503
Q 550 2559 238 2559
L 238 2759
L 1131 2828
L 1131 481
Q 1131 291 1200 244
Q 1269 197 1581 197
L 1581 0
Q 928 19 916 19
Q 828 19 213 0
z
M 481 3944
Q 481 4072 579 4176
Q 678 4281 818 4281
Q 959 4281 1059 4186
Q 1159 4091 1159 3942
Q 1159 3794 1059 3698
Q 959 3603 819 3603
Q 672 3603 576 3706
Q 481 3809 481 3944
z
" transform="scale(0.015625)"/>
       <path id="CMUSerif-Roman-8" d="M 359 3513
Q 359 4063 640 4431
Q 922 4800 1300 4800
Q 1531 4800 1759 4594
Q 2278 4100 2956 4103
Q 3725 4103 4172 4709
Q 4250 4800 4306 4800
Q 4356 4800 4395 4761
Q 4434 4722 4434 4672
Q 4434 4634 4384 4556
L 1147 -263
Q 1075 -359 1019 -359
Q 969 -359 930 -320
Q 891 -281 891 -231
Q 891 -188 947 -103
L 3822 4178
L 3816 4184
Q 3484 3959 2963 3963
Q 2469 3963 1997 4231
Q 2131 3900 2131 3506
Q 2131 2969 1890 2595
Q 1650 2222 1300 2222
Q 922 2222 640 2586
Q 359 2950 359 3513
z
M 800 4036
Q 756 3809 756 3507
Q 756 3206 800 2982
Q 844 2759 908 2643
Q 972 2528 1059 2461
Q 1147 2394 1200 2378
Q 1253 2363 1306 2363
Q 1569 2363 1770 2689
Q 1972 3016 1972 3513
Q 1972 4000 1770 4329
Q 1569 4659 1306 4659
Q 1250 4659 1195 4643
Q 1141 4628 1056 4561
Q 972 4494 908 4378
Q 844 4263 800 4036
z
M 3194 934
Q 3194 1484 3475 1853
Q 3756 2222 4134 2222
Q 4481 2222 4723 1847
Q 4966 1472 4966 928
Q 4966 391 4727 16
Q 4488 -359 4134 -359
Q 3756 -359 3475 6
Q 3194 372 3194 934
z
M 3636 1456
Q 3591 1228 3591 928
Q 3591 628 3636 403
Q 3681 178 3745 64
Q 3809 -50 3895 -117
Q 3981 -184 4036 -201
Q 4091 -219 4141 -219
Q 4403 -219 4604 107
Q 4806 434 4806 934
Q 4806 1422 4604 1751
Q 4403 2081 4141 2081
Q 4084 2081 4029 2064
Q 3975 2047 3892 1980
Q 3809 1913 3745 1798
Q 3681 1684 3636 1456
z
" transform="scale(0.015625)"/>
      </defs>
      <use xlink:href="#CMUSerif-Roman-32"/>
      <use xlink:href="#CMUSerif-Roman-58" transform="translate(77.6875 0)"/>
      <use xlink:href="#CMUSerif-Roman-57" transform="translate(133.15625 0)"/>
      <use xlink:href="#CMUSerif-Roman-4f" transform="translate(171.921875 0)"/>
      <use xlink:href="#CMUSerif-Roman-48" transform="translate(199.609375 0)"/>
      <use xlink:href="#CMUSerif-Roman-57" transform="translate(244 0)"/>
      <use xlink:href="#CMUSerif-Roman-3" transform="translate(282.765625 0)"/>
      <use xlink:href="#CMUSerif-Roman-26" transform="translate(316.015625 0)"/>
      <use xlink:href="#CMUSerif-Roman-32" transform="translate(388.1875 0)"/>
      <use xlink:href="#CMUSerif-Roman-3" transform="translate(465.875 0)"/>
      <use xlink:href="#CMUSerif-Roman-46" transform="translate(499.125 0)"/>
      <use xlink:href="#CMUSerif-Roman-52" transform="translate(543.515625 0)"/>
      <use xlink:href="#CMUSerif-Roman-51" transform="translate(593.515625 0)"/>
      <use xlink:href="#CMUSerif-Roman-59" transform="translate(646.203125 0)"/>
      <use xlink:href="#CMUSerif-Roman-48" transform="translate(696.109375 0)"/>
      <use xlink:href="#CMUSerif-Roman-55" transform="translate(740.5 0)"/>
      <use xlink:href="#CMUSerif-Roman-56" transform="translate(779.5625 0)"/>
      <use xlink:href="#CMUSerif-Roman-4c" transform="translate(818.921875 0)"/>
      <use xlink:href="#CMUSerif-Roman-52" transform="translate(846.609375 0)"/>
      <use xlink:href="#CMUSerif-Roman-51" transform="translate(896.609375 0)"/>
      <use xlink:href="#CMUSerif-Roman-3" transform="translate(952.078125 0)"/>
      <use xlink:href="#CMUSerif-Roman-b" transform="translate(985.328125 0)"/>
      <use xlink:href="#CMUSerif-Roman-8" transform="translate(1024.09375 0)"/>
      <use xlink:href="#CMUSerif-Roman-c" transform="translate(1107.34375 0)"/>
     </g>
    </g>
   </g>
   <g id="line2d_37">
    <path d="M 43.369834 46.404071
L 55.341901 47.940336
L 67.313967 49.480003
L 79.286034 51.021728
L 91.258101 52.564237
L 103.230167 54.106277
L 115.202234 55.646905
L 127.174301 57.185128
L 139.146367 58.720037
L 151.118434 60.250809
L 163.0905 61.776502
L 175.062567 63.29681
L 187.034634 64.810938
L 199.0067 66.318324
L 210.978767 67.818458
L 222.950834 69.31087
L 234.9229 70.795175
L 246.894967 72.270999
L 258.867034 73.738008
L 270.8391 75.195908
L 282.212564 76.572242
L 282.811167 76.644442
L 294.783234 78.083334
L 306.7553 79.512433
L 318.727367 80.931554
L 330.699434 82.340445
L 342.6715 83.739143
L 354.643567 85.12747
L 366.615634 86.505331
L 378.5877 87.872645
L 390.559767 89.229349
L 402.531833 90.575396
L 414.5039 91.910748
L 426.475967 93.235344
L 438.448033 94.549231
L 450.4201 95.852406
L 462.392167 97.144874
L 474.364233 98.426648
L 486.3363 99.697753
L 498.308367 100.958219
L 510.280433 102.208082
L 522.2525 103.447409
" clip-path="url(#p1bec0ceef9)" style="fill: none; stroke: #0f2537; stroke-width: 2; stroke-linecap: square"/>
    <defs>
     <path id="mf7b3b6b73e" d="M 0 2.1
C 0.556927 2.1 1.091118 1.878731 1.484924 1.484924
C 1.878731 1.091118 2.1 0.556927 2.1 0
C 2.1 -0.556927 1.878731 -1.091118 1.484924 -1.484924
C 1.091118 -1.878731 0.556927 -2.1 0 -2.1
C -0.556927 -2.1 -1.091118 -1.878731 -1.484924 -1.484924
C -1.878731 -1.091118 -2.1 -0.556927 -2.1 0
C -2.1 0.556927 -1.878731 1.091118 -1.484924 1.484924
C -1.091118 1.878731 -0.556927 2.1 0 2.1
z
" style="stroke: #0077b6; stroke-width: 1.25"/>
    </defs>
    <g clip-path="url(#p1bec0ceef9)">
     <use xlink:href="#mf7b3b6b73e" x="43.369834" y="46.404071" style="fill: #fffdf9; stroke: #0077b6; stroke-width: 1.25"/>
     <use xlink:href="#mf7b3b6b73e" x="55.341901" y="47.940336" style="fill: #fffdf9; stroke: #0077b6; stroke-width: 1.25"/>
     <use xlink:href="#mf7b3b6b73e" x="67.313967" y="49.480003" style="fill: #fffdf9; stroke: #0077b6; stroke-width: 1.25"/>
     <use xlink:href="#mf7b3b6b73e" x="79.286034" y="51.021728" style="fill: #fffdf9; stroke: #0077b6; stroke-width: 1.25"/>
     <use xlink:href="#mf7b3b6b73e" x="91.258101" y="52.564237" style="fill: #fffdf9; stroke: #0077b6; stroke-width: 1.25"/>
     <use xlink:href="#mf7b3b6b73e" x="103.230167" y="54.106277" style="fill: #fffdf9; stroke: #0077b6; stroke-width: 1.25"/>
     <use xlink:href="#mf7b3b6b73e" x="115.202234" y="55.646905" style="fill: #fffdf9; stroke: #0077b6; stroke-width: 1.25"/>
     <use xlink:href="#mf7b3b6b73e" x="127.174301" y="57.185128" style="fill: #fffdf9; stroke: #0077b6; stroke-width: 1.25"/>
     <use xlink:href="#mf7b3b6b73e" x="139.146367" y="58.720037" style="fill: #fffdf9; stroke: #0077b6; stroke-width: 1.25"/>
     <use xlink:href="#mf7b3b6b73e" x="151.118434" y="60.250809" style="fill: #fffdf9; stroke: #0077b6; stroke-width: 1.25"/>
     <use xlink:href="#mf7b3b6b73e" x="163.0905" y="61.776502" style="fill: #fffdf9; stroke: #0077b6; stroke-width: 1.25"/>
     <use xlink:href="#mf7b3b6b73e" x="175.062567" y="63.29681" style="fill: #fffdf9; stroke: #0077b6; stroke-width: 1.25"/>
     <use xlink:href="#mf7b3b6b73e" x="187.034634" y="64.810938" style="fill: #fffdf9; stroke: #0077b6; stroke-width: 1.25"/>
     <use xlink:href="#mf7b3b6b73e" x="199.0067" y="66.318324" style="fill: #fffdf9; stroke: #0077b6; stroke-width: 1.25"/>
     <use xlink:href="#mf7b3b6b73e" x="210.978767" y="67.818458" style="fill: #fffdf9; stroke: #0077b6; stroke-width: 1.25"/>
     <use xlink:href="#mf7b3b6b73e" x="222.950834" y="69.31087" style="fill: #fffdf9; stroke: #0077b6; stroke-width: 1.25"/>
     <use xlink:href="#mf7b3b6b73e" x="234.9229" y="70.795175" style="fill: #fffdf9; stroke: #0077b6; stroke-width: 1.25"/>
     <use xlink:href="#mf7b3b6b73e" x="246.894967" y="72.270999" style="fill: #fffdf9; stroke: #0077b6; stroke-width: 1.25"/>
     <use xlink:href="#mf7b3b6b73e" x="258.867034" y="73.738008" style="fill: #fffdf9; stroke: #0077b6; stroke-width: 1.25"/>
     <use xlink:href="#mf7b3b6b73e" x="270.8391" y="75.195908" style="fill: #fffdf9; stroke: #0077b6; stroke-width: 1.25"/>
     <use xlink:href="#mf7b3b6b73e" x="282.212564" y="76.572242" style="fill: #fffdf9; stroke: #0077b6; stroke-width: 1.25"/>
     <use xlink:href="#mf7b3b6b73e" x="282.811167" y="76.644442" style="fill: #fffdf9; stroke: #0077b6; stroke-width: 1.25"/>
     <use xlink:href="#mf7b3b6b73e" x="294.783234" y="78.083334" style="fill: #fffdf9; stroke: #0077b6; stroke-width: 1.25"/>
     <use xlink:href="#mf7b3b6b73e" x="306.7553" y="79.512433" style="fill: #fffdf9; stroke: #0077b6; stroke-width: 1.25"/>
     <use xlink:href="#mf7b3b6b73e" x="318.727367" y="80.931554" style="fill: #fffdf9; stroke: #0077b6; stroke-width: 1.25"/>
     <use xlink:href="#mf7b3b6b73e" x="330.699434" y="82.340445" style="fill: #fffdf9; stroke: #0077b6; stroke-width: 1.25"/>
     <use xlink:href="#mf7b3b6b73e" x="342.6715" y="83.739143" style="fill: #fffdf9; stroke: #0077b6; stroke-width: 1.25"/>
     <use xlink:href="#mf7b3b6b73e" x="354.643567" y="85.12747" style="fill: #fffdf9; stroke: #0077b6; stroke-width: 1.25"/>
     <use xlink:href="#mf7b3b6b73e" x="366.615634" y="86.505331" style="fill: #fffdf9; stroke: #0077b6; stroke-width: 1.25"/>
     <use xlink:href="#mf7b3b6b73e" x="378.5877" y="87.872645" style="fill: #fffdf9; stroke: #0077b6; stroke-width: 1.25"/>
     <use xlink:href="#mf7b3b6b73e" x="390.559767" y="89.229349" style="fill: #fffdf9; stroke: #0077b6; stroke-width: 1.25"/>
     <use xlink:href="#mf7b3b6b73e" x="402.531833" y="90.575396" style="fill: #fffdf9; stroke: #0077b6; stroke-width: 1.25"/>
     <use xlink:href="#mf7b3b6b73e" x="414.5039" y="91.910748" style="fill: #fffdf9; stroke: #0077b6; stroke-width: 1.25"/>
     <use xlink:href="#mf7b3b6b73e" x="426.475967" y="93.235344" style="fill: #fffdf9; stroke: #0077b6; stroke-width: 1.25"/>
     <use xlink:href="#mf7b3b6b73e" x="438.448033" y="94.549231" style="fill: #fffdf9; stroke: #0077b6; stroke-width: 1.25"/>
     <use xlink:href="#mf7b3b6b73e" x="450.4201" y="95.852406" style="fill: #fffdf9; stroke: #0077b6; stroke-width: 1.25"/>
     <use xlink:href="#mf7b3b6b73e" x="462.392167" y="97.144874" style="fill: #fffdf9; stroke: #0077b6; stroke-width: 1.25"/>
     <use xlink:href="#mf7b3b6b73e" x="474.364233" y="98.426648" style="fill: #fffdf9; stroke: #0077b6; stroke-width: 1.25"/>
     <use xlink:href="#mf7b3b6b73e" x="486.3363" y="99.697753" style="fill: #fffdf9; stroke: #0077b6; stroke-width: 1.25"/>
     <use xlink:href="#mf7b3b6b73e" x="498.308367" y="100.958219" style="fill: #fffdf9; stroke: #0077b6; stroke-width: 1.25"/>
     <use xlink:href="#mf7b3b6b73e" x="510.280433" y="102.208082" style="fill: #fffdf9; stroke: #0077b6; stroke-width: 1.25"/>
     <use xlink:href="#mf7b3b6b73e" x="522.2525" y="103.447409" style="fill: #fffdf9; stroke: #0077b6; stroke-width: 1.25"/>
    </g>
   </g>
   <g id="line2d_38">
    <path d="M 282.212564 328.86
L 282.212564 8.382832
" clip-path="url(#p1bec0ceef9)" style="fill: none; stroke-dasharray: 2.2,2.2; stroke-dashoffset: 0; stroke: #c92a2a; stroke-width: 1.1"/>
   </g>
   <g id="patch_3">
    <path d="M 43.369834 328.86
L 43.369834 8.382832
" style="fill: none; stroke: #111111; stroke-linejoin: miter; stroke-linecap: square"/>
   </g>
   <g id="patch_4">
    <path d="M 522.2525 328.86
L 522.2525 8.382832
" style="fill: none; stroke: #111111; stroke-linejoin: miter; stroke-linecap: square"/>
   </g>
   <g id="patch_5">
    <path d="M 43.369834 328.86
L 522.2525 328.86
" style="fill: none; stroke: #111111; stroke-linejoin: miter; stroke-linecap: square"/>
   </g>
   <g id="patch_6">
    <path d="M 43.369834 8.382832
L 522.2525 8.382832
" style="fill: none; stroke: #111111; stroke-linejoin: miter; stroke-linecap: square"/>
   </g>
   <g id="text_18">
    <!-- Reference: 78.72% at 0.799 mol/h -->
    <g style="fill: #c92a2a" transform="translate(290.212564 64.572242) scale(0.095 -0.095)">
     <defs>
      <path id="CMUSerif-Roman-35" d="M 225 0
L 225 197
L 378 197
Q 725 197 804 255
Q 884 313 884 500
L 884 3872
Q 884 4056 803 4114
Q 722 4172 378 4172
L 225 4172
L 225 4372
L 2234 4372
Q 2931 4372 3417 4030
Q 3903 3688 3903 3219
Q 3903 2859 3587 2578
Q 3272 2297 2784 2175
Q 3419 1956 3566 1434
L 3647 922
Q 3672 738 3689 644
Q 3706 550 3734 422
Q 3763 294 3792 233
Q 3822 172 3865 108
Q 3909 44 3967 22
Q 4025 0 4103 0
Q 4250 0 4375 131
Q 4500 263 4525 569
Q 4538 672 4603 672
Q 4684 672 4684 569
Q 4684 478 4659 373
Q 4634 269 4573 147
Q 4513 25 4381 -58
Q 4250 -141 4078 -141
Q 3578 -141 3272 128
Q 3144 244 3086 394
Q 3028 544 3018 662
Q 3009 781 3009 1044
Q 3009 1416 2970 1578
Q 2931 1741 2766 1900
Q 2541 2119 2169 2119
L 1434 2119
L 1434 500
Q 1434 316 1514 256
Q 1594 197 1941 197
L 2094 197
L 2094 0
Q 1863 19 1159 19
Q 456 19 225 0
z
M 1434 2259
L 2144 2259
Q 2484 2259 2714 2342
Q 2944 2425 3053 2575
Q 3163 2725 3203 2876
Q 3244 3028 3244 3219
Q 3244 3444 3194 3612
Q 3144 3781 3034 3881
Q 2925 3981 2815 4045
Q 2706 4109 2537 4134
Q 2369 4159 2253 4165
Q 2138 4172 1953 4172
Q 1641 4172 1575 4159
Q 1503 4153 1475 4118
Q 1447 4084 1440 4045
Q 1434 4006 1434 3916
L 1434 2259
z
" transform="scale(0.015625)"/>
      <path id="CMUSerif-Roman-1d" d="M 650 98
Q 550 197 550 337
Q 550 478 650 578
Q 750 678 890 678
Q 1031 678 1131 578
Q 1231 478 1231 337
Q 1231 197 1131 98
Q 1031 0 890 0
Q 750 0 650 98
z
M 650 2179
Q 550 2278 550 2418
Q 550 2559 650 2659
Q 750 2759 890 2759
Q 1031 2759 1131 2659
Q 1231 2559 1231 2418
Q 1231 2278 1131 2179
Q 1031 2081 890 2081
Q 750 2081 650 2179
z
" transform="scale(0.015625)"/>
      <path id="CMUSerif-Roman-44" d="M 269 609
Q 269 1153 909 1441
Q 1294 1625 2088 1672
L 2088 1906
Q 2088 2303 1880 2514
Q 1672 2725 1409 2725
Q 941 2725 716 2431
Q 906 2425 975 2329
Q 1044 2234 1044 2138
Q 1044 2009 964 1926
Q 884 1844 750 1844
Q 622 1844 537 1923
Q 453 2003 453 2144
Q 453 2456 736 2662
Q 1019 2869 1422 2869
Q 1947 2869 2297 2516
Q 2406 2406 2461 2265
Q 2516 2125 2522 2033
Q 2528 1941 2528 1759
L 2528 481
Q 2528 444 2540 381
Q 2553 319 2611 239
Q 2669 159 2766 159
Q 2997 159 2994 569
L 2994 928
L 3156 928
L 3156 569
Q 3156 228 2976 95
Q 2797 -38 2631 -38
Q 2419 -38 2284 118
Q 2150 275 2131 488
Q 2034 244 1814 86
Q 1594 -72 1294 -72
Q 1063 -72 845 -14
Q 628 44 448 205
Q 269 366 269 609
z
M 763 616
Q 763 378 931 225
Q 1100 72 1338 72
Q 1606 72 1847 280
Q 2088 488 2088 897
L 2088 1538
Q 1378 1513 1070 1230
Q 763 947 763 616
z
" transform="scale(0.015625)"/>
      <path id="CMUSerif-Roman-12" d="M 366 -1509
Q 366 -1478 391 -1409
L 2650 4628
Q 2650 4634 2665 4668
Q 2681 4703 2690 4726
Q 2700 4750 2720 4769
Q 2741 4788 2766 4788
Q 2828 4788 2828 4709
Q 2828 4703 2809 4628
L 544 -1416
Q 506 -1525 482 -1556
Q 459 -1588 422 -1588
Q 366 -1588 366 -1509
z
" transform="scale(0.015625)"/>
     </defs>
     <use xlink:href="#CMUSerif-Roman-35"/>
     <use xlink:href="#CMUSerif-Roman-48" transform="translate(73.578125 0)"/>
     <use xlink:href="#CMUSerif-Roman-49" transform="translate(117.96875 0)"/>
     <use xlink:href="#CMUSerif-Roman-48" transform="translate(148.4375 0)"/>
     <use xlink:href="#CMUSerif-Roman-55" transform="translate(192.828125 0)"/>
     <use xlink:href="#CMUSerif-Roman-48" transform="translate(231.890625 0)"/>
     <use xlink:href="#CMUSerif-Roman-51" transform="translate(276.28125 0)"/>
     <use xlink:href="#CMUSerif-Roman-46" transform="translate(331.75 0)"/>
     <use xlink:href="#CMUSerif-Roman-48" transform="translate(376.140625 0)"/>
     <use xlink:href="#CMUSerif-Roman-1d" transform="translate(420.53125 0)"/>
     <use xlink:href="#CMUSerif-Roman-3" transform="translate(448.21875 0)"/>
     <use xlink:href="#CMUSerif-Roman-1a" transform="translate(481.46875 0)"/>
     <use xlink:href="#CMUSerif-Roman-1b" transform="translate(531.46875 0)"/>
     <use xlink:href="#CMUSerif-Roman-11" transform="translate(581.46875 0)"/>
     <use xlink:href="#CMUSerif-Roman-1a" transform="translate(609.25 0)"/>
     <use xlink:href="#CMUSerif-Roman-15" transform="translate(659.25 0)"/>
     <use xlink:href="#CMUSerif-Roman-8" transform="translate(709.25 0)"/>
     <use xlink:href="#CMUSerif-Roman-3" transform="translate(792.5 0)"/>
     <use xlink:href="#CMUSerif-Roman-44" transform="translate(825.75 0)"/>
     <use xlink:href="#CMUSerif-Roman-57" transform="translate(875.75 0)"/>
     <use xlink:href="#CMUSerif-Roman-3" transform="translate(914.515625 0)"/>
     <use xlink:href="#CMUSerif-Roman-13" transform="translate(947.765625 0)"/>
     <use xlink:href="#CMUSerif-Roman-11" transform="translate(997.765625 0)"/>
     <use xlink:href="#CMUSerif-Roman-1a" transform="translate(1025.546875 0)"/>
     <use xlink:href="#CMUSerif-Roman-1c" transform="translate(1075.546875 0)"/>
     <use xlink:href="#CMUSerif-Roman-1c" transform="translate(1125.546875 0)"/>
     <use xlink:href="#CMUSerif-Roman-3" transform="translate(1175.546875 0)"/>
     <use xlink:href="#CMUSerif-Roman-50" transform="translate(1208.796875 0)"/>
     <use xlink:href="#CMUSerif-Roman-52" transform="translate(1292.046875 0)"/>
     <use xlink:href="#CMUSerif-Roman-4f" transform="translate(1342.046875 0)"/>
     <use xlink:href="#CMUSerif-Roman-12" transform="translate(1369.734375 0)"/>
     <use xlink:href="#CMUSerif-Roman-4b" transform="translate(1419.734375 0)"/>
    </g>
   </g>
   <g id="PathCollection_1">
    <defs>
     <path id="ma366d49361" d="M -3.807887 3.807887
L 3.807887 3.807887
L 3.807887 -3.807887
L -3.807887 -3.807887
z
" style="stroke: #c92a2a; stroke-width: 1.6"/>
    </defs>
    <g clip-path="url(#p1bec0ceef9)">
     <use xlink:href="#ma366d49361" x="282.212564" y="76.572242" style="fill: #fffdf9; stroke: #c92a2a; stroke-width: 1.6"/>
    </g>
   </g>
   <g id="legend_1">
    <g id="line2d_39">
     <path d="M 53.665834 295.109766
L 65.105834 295.109766
L 76.545834 295.109766
" style="fill: none; stroke: #0f2537; stroke-width: 2; stroke-linecap: square"/>
     <g>
      <use xlink:href="#mf7b3b6b73e" x="65.105834" y="295.109766" style="fill: #fffdf9; stroke: #0077b6; stroke-width: 1.25"/>
     </g>
    </g>
    <g id="text_19">
     <!-- Full M4 model -->
     <g transform="translate(85.697834 299.113766) scale(0.1144 -0.1144)">
      <defs>
       <path id="CMUSerif-Roman-29" d="M 213 0
L 213 197
L 366 197
Q 713 197 792 255
Q 872 313 872 500
L 872 3853
Q 872 4038 790 4095
Q 709 4153 366 4153
L 213 4153
L 213 4353
L 3725 4353
L 3903 2913
L 3744 2913
Q 3700 3278 3642 3486
Q 3584 3694 3453 3859
Q 3322 4025 3101 4089
Q 2881 4153 2522 4153
L 1753 4153
Q 1534 4153 1487 4108
Q 1441 4063 1441 3897
L 1441 2278
L 1991 2278
Q 2425 2278 2547 2434
Q 2669 2591 2669 3028
L 2828 3028
L 2828 1331
L 2669 1331
Q 2669 1772 2547 1926
Q 2425 2081 1991 2081
L 1441 2081
L 1441 506
Q 1441 372 1462 320
Q 1484 269 1618 233
Q 1753 197 2047 197
L 2259 197
L 2259 0
Q 2028 19 1184 19
Q 438 19 213 0
z
" transform="scale(0.015625)"/>
       <path id="CMUSerif-Roman-30" d="M 238 0
L 238 197
Q 469 197 616 242
Q 763 288 817 373
Q 872 459 884 517
Q 897 575 897 672
L 897 3872
Q 897 4056 817 4114
Q 738 4172 391 4172
L 238 4172
L 238 4372
L 1319 4372
Q 1434 4372 1465 4351
Q 1497 4331 1544 4231
L 2931 647
L 4331 4250
Q 4363 4341 4392 4356
Q 4422 4372 4544 4372
L 5625 4372
L 5625 4172
L 5472 4172
Q 5125 4172 5045 4114
Q 4966 4056 4966 3872
L 4966 500
Q 4966 316 5045 256
Q 5125 197 5472 197
L 5625 197
L 5625 0
Q 5388 19 4709 19
Q 4025 19 3788 0
L 3788 197
L 3944 197
Q 4291 197 4369 255
Q 4447 313 4447 500
L 4447 4172
L 4441 4172
L 2869 122
Q 2825 0 2753 0
Q 2675 0 2625 141
L 1081 4122
L 1075 4122
L 1075 672
Q 1075 575 1087 517
Q 1100 459 1154 373
Q 1209 288 1356 242
Q 1503 197 1734 197
L 1734 0
Q 1063 19 986 19
Q 909 19 238 0
z
" transform="scale(0.015625)"/>
       <path id="CMUSerif-Roman-47" d="M 219 1375
Q 219 1984 644 2406
Q 1069 2828 1644 2828
Q 2131 2828 2450 2431
L 2450 3816
Q 2450 4053 2367 4112
Q 2284 4172 1953 4172
L 1953 4372
L 2875 4441
L 2875 556
Q 2875 319 2958 258
Q 3041 197 3372 197
L 3372 0
L 2431 -72
L 2431 353
Q 2100 -69 1575 -72
Q 1025 -72 622 350
Q 219 772 219 1375
z
M 750 1369
Q 750 775 934 481
Q 1191 72 1606 72
Q 2081 72 2363 519
Q 2434 628 2431 756
L 2431 2069
Q 2431 2197 2363 2303
Q 2100 2688 1672 2688
Q 1225 2688 947 2278
Q 750 1972 750 1369
z
" transform="scale(0.015625)"/>
      </defs>
      <use xlink:href="#CMUSerif-Roman-29"/>
      <use xlink:href="#CMUSerif-Roman-58" transform="translate(56.890625 0)"/>
      <use xlink:href="#CMUSerif-Roman-4f" transform="translate(112.359375 0)"/>
      <use xlink:href="#CMUSerif-Roman-4f" transform="translate(140.046875 0)"/>
      <use xlink:href="#CMUSerif-Roman-3" transform="translate(167.734375 0)"/>
      <use xlink:href="#CMUSerif-Roman-30" transform="translate(200.984375 0)"/>
      <use xlink:href="#CMUSerif-Roman-17" transform="translate(292.53125 0)"/>
      <use xlink:href="#CMUSerif-Roman-3" transform="translate(342.53125 0)"/>
      <use xlink:href="#CMUSerif-Roman-50" transform="translate(375.78125 0)"/>
      <use xlink:href="#CMUSerif-Roman-52" transform="translate(459.03125 0)"/>
      <use xlink:href="#CMUSerif-Roman-47" transform="translate(511.8125 0)"/>
      <use xlink:href="#CMUSerif-Roman-48" transform="translate(567.28125 0)"/>
      <use xlink:href="#CMUSerif-Roman-4f" transform="translate(611.671875 0)"/>
     </g>
    </g>
    <g id="PathCollection_2">
     <g>
      <use xlink:href="#ma366d49361" x="65.105834" y="313.270766" style="fill: #fffdf9; stroke: #c92a2a; stroke-width: 1.6"/>
     </g>
    </g>
    <g id="text_20">
     <!-- Experiment 1 inlet N$_2$ -->
     <g transform="translate(85.697834 316.273766) scale(0.1144 -0.1144)">
      <defs>
       <path id="CMUSerif-Roman-28" d="M 213 0
L 213 197
L 366 197
Q 713 197 792 255
Q 872 313 872 500
L 872 3853
Q 872 4038 790 4095
Q 709 4153 366 4153
L 213 4153
L 213 4353
L 3816 4353
L 3994 2913
L 3834 2913
Q 3791 3278 3733 3489
Q 3675 3700 3536 3862
Q 3397 4025 3170 4089
Q 2944 4153 2578 4153
L 1753 4153
Q 1534 4153 1487 4108
Q 1441 4063 1441 3897
L 1441 2363
L 2016 2363
Q 2456 2363 2581 2516
Q 2706 2669 2706 3109
L 2869 3109
L 2869 1416
L 2706 1416
Q 2706 1850 2581 2006
Q 2456 2163 2016 2163
L 1441 2163
L 1441 453
Q 1441 288 1489 242
Q 1538 197 1753 197
L 2606 197
Q 2881 197 3082 233
Q 3284 269 3425 358
Q 3566 447 3661 550
Q 3756 653 3823 839
Q 3891 1025 3930 1197
Q 3969 1369 4013 1650
L 4172 1650
L 3903 0
L 213 0
z
" transform="scale(0.015625)"/>
       <path id="CMUSerif-Roman-5b" d="M 78 0
L 78 197
Q 578 197 897 581
Q 897 581 1497 1344
L 863 2169
Q 638 2456 539 2507
Q 441 2559 109 2559
L 109 2759
Q 372 2741 716 2741
Q 906 2741 1409 2759
L 1409 2559
Q 1184 2547 1184 2400
Q 1184 2350 1241 2284
L 1741 1638
L 2138 2138
Q 2234 2253 2234 2363
Q 2234 2541 2047 2559
L 2047 2759
Q 2297 2741 2663 2741
Q 2938 2741 3188 2759
L 3188 2559
Q 2700 2547 2425 2228
Q 2303 2094 1838 1503
L 2694 397
Q 2797 263 2912 230
Q 3028 197 3303 197
L 3303 0
Q 3016 19 2688 19
Q 2572 19 1997 0
L 1997 197
Q 2113 203 2170 254
Q 2228 306 2228 359
Q 2228 384 2094 569
L 1606 1209
Q 1119 634 1056 500
Q 1031 444 1031 397
Q 1031 225 1216 197
L 1216 0
Q 756 19 609 19
Q 328 19 78 0
z
" transform="scale(0.015625)"/>
       <path id="CMUSerif-Roman-53" d="M 178 -1044
Q 519 -1044 598 -1001
Q 678 -959 678 -756
L 678 2241
Q 678 2453 598 2506
Q 519 2559 178 2559
L 178 2759
L 1100 2828
L 1100 2406
Q 1484 2828 1997 2828
Q 2541 2828 2937 2406
Q 3334 1984 3334 1381
Q 3334 772 2912 350
Q 2491 -72 1906 -72
Q 1588 -72 1373 92
Q 1159 256 1119 378
L 1119 319
L 1119 -756
Q 1119 -963 1200 -1003
Q 1281 -1044 1619 -1044
L 1619 -1241
Q 947 -1222 897 -1222
Q 834 -1222 178 -1241
L 178 -1044
z
M 1119 728
Q 1119 631 1133 597
Q 1147 563 1209 459
Q 1463 72 1875 72
Q 1878 72 1881 72
Q 2247 72 2525 445
Q 2803 819 2803 1381
Q 2803 1919 2550 2294
Q 2297 2669 1947 2669
Q 1697 2669 1478 2534
Q 1259 2400 1119 2156
L 1119 728
z
" transform="scale(0.015625)"/>
      </defs>
      <use xlink:href="#CMUSerif-Roman-28" transform="translate(0 0.609375)"/>
      <use xlink:href="#CMUSerif-Roman-5b" transform="translate(67.96875 0.609375)"/>
      <use xlink:href="#CMUSerif-Roman-53" transform="translate(120.654297 0.609375)"/>
      <use xlink:href="#CMUSerif-Roman-48" transform="translate(176.123047 0.609375)"/>
      <use xlink:href="#CMUSerif-Roman-55" transform="translate(220.507812 0.609375)"/>
      <use xlink:href="#CMUSerif-Roman-4c" transform="translate(259.570312 0.609375)"/>
      <use xlink:href="#CMUSerif-Roman-50" transform="translate(287.255859 0.609375)"/>
      <use xlink:href="#CMUSerif-Roman-48" transform="translate(370.507812 0.609375)"/>
      <use xlink:href="#CMUSerif-Roman-51" transform="translate(414.892578 0.609375)"/>
      <use xlink:href="#CMUSerif-Roman-57" transform="translate(470.361328 0.609375)"/>
      <use xlink:href="#CMUSerif-Roman-3" transform="translate(509.130859 0.609375)"/>
      <use xlink:href="#CMUSerif-Roman-14" transform="translate(542.382812 0.609375)"/>
      <use xlink:href="#CMUSerif-Roman-3" transform="translate(592.382812 0.609375)"/>
      <use xlink:href="#CMUSerif-Roman-4c" transform="translate(625.634766 0.609375)"/>
      <use xlink:href="#CMUSerif-Roman-51" transform="translate(653.320312 0.609375)"/>
      <use xlink:href="#CMUSerif-Roman-4f" transform="translate(708.789062 0.609375)"/>
      <use xlink:href="#CMUSerif-Roman-48" transform="translate(736.474609 0.609375)"/>
      <use xlink:href="#CMUSerif-Roman-57" transform="translate(780.859375 0.609375)"/>
      <use xlink:href="#CMUSerif-Roman-3" transform="translate(819.628906 0.609375)"/>
      <use xlink:href="#CMUSerif-Roman-31" transform="translate(852.880859 0.609375)"/>
      <use xlink:href="#Cmr10-31" transform="translate(931.88515 -14.390587) scale(0.7)"/>
     </g>
    </g>
   </g>
  </g>
 </g>
 <defs>
  <clipPath id="p1bec0ceef9">
   <rect x="43.369834" y="8.382832" width="478.882666" height="320.477168"/>
  </clipPath>
 </defs>
</svg>
