<?xml version="1.0" encoding="utf-8" standalone="no"?>
<!DOCTYPE svg PUBLIC "-//W3C//DTD SVG 1.1//EN"
  "http://www.w3.org/Graphics/SVG/1.1/DTD/svg11.dtd">
<svg xmlns:xlink="http://www.w3.org/1999/xlink" width="463.923085pt" height="245.148338pt" viewBox="0 0 463.923085 245.148338" xmlns="http://www.w3.org/2000/svg" version="1.1">
 <title>figure_06_feed_flow_sensitivities</title>
 <metadata>
  <rdf:RDF xmlns:dc="http://purl.org/dc/elements/1.1/" xmlns:cc="http://creativecommons.org/ns#" xmlns:rdf="http://www.w3.org/1999/02/22-rdf-syntax-ns#">
   <cc:Work>
    <dc:type rdf:resource="http://purl.org/dc/dcmitype/StillImage"/>
    <dc:title>figure_06_feed_flow_sensitivities</dc:title>
    <dc:date>2026-09-26T22:22:12.752453</dc:date>
    <dc:format>image/svg+xml</dc:format>
    <dc:creator>
     <cc:Agent>
      <dc:title>Matplotlib</dc:title>
     </cc:Agent>
    </dc:creator>
   </cc:Work>
  </rdf:RDF>
 </metadata>
 <defs>
  <style type="text/css">*{stroke-linejoin: round; stroke-linecap: butt}</style>
 </defs>
 <g id="figure_1">
  <g id="patch_1">
   <path d="M 0 245.148338 
L 463.923085 245.148338 
L 463.923085 0 
L 0 0 
z
" style="fill: #ffffff"/>
  </g>
  <g id="axes_1">
   <g id="patch_2">
    <path d="M 35.965477 213.787299 
L 203.262474 213.787299 
L 203.262474 24.431904 
L 35.965477 24.431904 
z
" style="fill: #ffffff"/>
   </g>
   <g id="QuadContourSet_1">
    <path d="M 119.613975 213.787299 
L 128.908253 213.787299 
L 138.202531 213.787299 
L 147.496808 213.787299 
L 156.791086 213.787299 
L 166.085364 213.787299 
L 175.379641 213.787299 
L 184.673919 213.787299 
L 193.968196 213.787299 
L 203.262474 213.787299 
L 203.262474 205.345728 
L 193.968196 206.215319 
L 184.673919 207.084532 
L 175.379641 207.953548 
L 166.085364 208.822439 
L 156.791086 209.691606 
L 147.496808 210.561231 
L 138.202531 211.431546 
L 128.908253 212.302868 
L 119.613975 213.175536 
L 113.156466 213.787299 
z
" clip-path="url(#p9f2b54d256)" style="fill: #000004"/>
    <path d="M 45.259754 213.787299 
L 54.554032 213.787299 
L 63.848309 213.787299 
L 73.142587 213.787299 
L 82.436865 213.787299 
L 91.731142 213.787299 
L 101.02542 213.787299 
L 110.319698 213.787299 
L 113.156466 213.787299 
L 119.613975 213.175536 
L 128.908253 212.302868 
L 138.202531 211.431546 
L 147.496808 210.561231 
L 156.791086 209.691606 
L 166.085364 208.822439 
L 175.379641 207.953548 
L 184.673919 207.084532 
L 193.968196 206.215319 
L 203.262474 205.345728 
L 203.262474 203.267555 
L 203.262474 194.950773 
L 193.968196 196.022859 
L 184.673919 197.095787 
L 175.379641 198.169884 
L 166.085364 199.245488 
L 156.791086 200.323007 
L 147.496808 201.402884 
L 138.202531 202.485616 
L 131.55014 203.267555 
L 128.908253 203.566108 
L 119.613975 204.633733 
L 110.319698 205.702168 
L 101.02542 206.771819 
L 91.731142 207.843135 
L 82.436865 208.916638 
L 73.142587 209.993068 
L 63.848309 211.0729 
L 54.554032 212.157022 
L 45.259754 213.246382 
L 40.733528 213.787299 
z
" clip-path="url(#p9f2b54d256)" style="fill: #030312"/>
    <path d="M 45.259754 213.246382 
L 54.554032 212.157022 
L 63.848309 211.0729 
L 73.142587 209.993068 
L 82.436865 208.916638 
L 91.731142 207.843135 
L 101.02542 206.771819 
L 110.319698 205.702168 
L 119.613975 204.633733 
L 128.908253 203.566108 
L 131.55014 203.267555 
L 138.202531 202.485616 
L 147.496808 201.402884 
L 156.791086 200.323007 
L 166.085364 199.245488 
L 175.379641 198.169884 
L 184.673919 197.095787 
L 193.968196 196.022859 
L 203.262474 194.950773 
L 203.262474 192.747811 
L 203.262474 184.368922 
L 193.968196 185.650433 
L 184.673919 186.934697 
L 175.379641 188.222274 
L 166.085364 189.513726 
L 156.791086 190.809741 
L 147.496808 192.111086 
L 143.013817 192.747811 
L 138.202531 193.398256 
L 128.908253 194.66948 
L 119.613975 195.943595 
L 110.319698 197.221283 
L 101.02542 198.503297 
L 91.731142 199.790492 
L 82.436865 201.083872 
L 73.142587 202.384623 
L 66.922239 203.267555 
L 63.848309 203.680108 
L 54.554032 204.951933 
L 45.259754 206.227755 
L 35.965477 207.508602 
L 35.965477 213.787299 
L 40.733528 213.787299 
z
" clip-path="url(#p9f2b54d256)" style="fill: #130d34"/>
    <path d="M 45.259754 206.227755 
L 54.554032 204.951933 
L 63.848309 203.680108 
L 66.922239 203.267555 
L 73.142587 202.384623 
L 82.436865 201.083872 
L 91.731142 199.790492 
L 101.02542 198.503297 
L 110.319698 197.221283 
L 119.613975 195.943595 
L 128.908253 194.66948 
L 138.202531 193.398256 
L 143.013817 192.747811 
L 147.496808 192.111086 
L 156.791086 190.809741 
L 166.085364 189.513726 
L 175.379641 188.222274 
L 184.673919 186.934697 
L 193.968196 185.650433 
L 203.262474 184.368922 
L 203.262474 182.228067 
L 203.262474 176.105575 
L 203.262474 173.498387 
L 193.968196 175.014641 
L 187.341443 176.105575 
L 184.673919 176.52976 
L 175.379641 178.030562 
L 166.085364 179.537622 
L 156.791086 181.051885 
L 149.638967 182.228067 
L 147.496808 182.563968 
L 138.202531 184.046864 
L 128.908253 185.535391 
L 119.613975 187.030567 
L 110.319698 188.53353 
L 101.02542 190.04562 
L 91.731142 191.568349 
L 84.622688 192.747811 
L 82.436865 193.088169 
L 73.142587 194.565922 
L 63.848309 196.050757 
L 54.554032 197.544028 
L 45.259754 199.047457 
L 35.965477 200.563078 
L 35.965477 203.267555 
L 35.965477 207.508602 
z
" clip-path="url(#p9f2b54d256)" style="fill: #29115a"/>
    <path d="M 45.259754 199.047457 
L 54.554032 197.544028 
L 63.848309 196.050757 
L 73.142587 194.565922 
L 82.436865 193.088169 
L 84.622688 192.747811 
L 91.731142 191.568349 
L 101.02542 190.04562 
L 110.319698 188.53353 
L 119.613975 187.030567 
L 128.908253 185.535391 
L 138.202531 184.046864 
L 147.496808 182.563968 
L 149.638967 182.228067 
L 156.791086 181.051885 
L 166.085364 179.537622 
L 175.379641 178.030562 
L 184.673919 176.52976 
L 187.341443 176.105575 
L 193.968196 175.014641 
L 203.262474 173.498387 
L 203.262474 171.708322 
L 203.262474 162.162891 
L 193.968196 163.889121 
L 184.673919 165.624573 
L 175.379641 167.370485 
L 166.085364 169.128335 
L 156.791086 170.899778 
L 152.618482 171.708322 
L 147.496808 172.651488 
L 138.202531 174.386582 
L 129.065151 176.105575 
L 128.908253 176.133908 
L 119.613975 177.8511 
L 110.319698 179.5804 
L 101.02542 181.323744 
L 96.288705 182.228067 
L 91.731142 183.048255 
L 82.436865 184.747771 
L 73.142587 186.45939 
L 63.848309 188.185332 
L 54.554032 189.928142 
L 45.259754 191.69088 
L 39.804626 192.747811 
L 35.965477 193.434264 
L 35.965477 200.563078 
z
" clip-path="url(#p9f2b54d256)" style="fill: #440f76"/>
    <path d="M 39.804626 192.747811 
L 45.259754 191.69088 
L 54.554032 189.928142 
L 63.848309 188.185332 
L 73.142587 186.45939 
L 82.436865 184.747771 
L 91.731142 183.048255 
L 96.288705 182.228067 
L 101.02542 181.323744 
L 110.319698 179.5804 
L 119.613975 177.8511 
L 128.908253 176.133908 
L 129.065151 176.105575 
L 138.202531 174.386582 
L 147.496808 172.651488 
L 152.618482 171.708322 
L 156.791086 170.899778 
L 166.085364 169.128335 
L 175.379641 167.370485 
L 184.673919 165.624573 
L 193.968196 163.889121 
L 203.262474 162.162891 
L 203.262474 161.188578 
L 203.262474 150.668834 
L 203.262474 150.260582 
L 201.447448 150.668834 
L 193.968196 152.243532 
L 184.673919 154.219148 
L 175.379641 156.21058 
L 166.085364 158.219958 
L 156.791086 160.249683 
L 152.567357 161.188578 
L 147.496808 162.238575 
L 138.202531 164.190517 
L 128.908253 166.159341 
L 119.613975 168.147571 
L 110.319698 170.15811 
L 103.266911 171.708322 
L 101.02542 172.172393 
L 91.731142 174.139096 
L 82.544499 176.105575 
L 82.436865 176.127543 
L 73.142587 178.07537 
L 63.848309 180.045073 
L 54.554032 182.040526 
L 53.706278 182.228067 
L 45.259754 183.966156 
L 35.965477 185.902167 
L 35.965477 192.747811 
L 35.965477 193.434264 
z
" clip-path="url(#p9f2b54d256)" style="fill: #5d177f"/>
    <path d="M 45.259754 183.966156 
L 53.706278 182.228067 
L 54.554032 182.040526 
L 63.848309 180.045073 
L 73.142587 178.07537 
L 82.436865 176.127543 
L 82.544499 176.105575 
L 91.731142 174.139096 
L 101.02542 172.172393 
L 103.266911 171.708322 
L 110.319698 170.15811 
L 119.613975 168.147571 
L 128.908253 166.159341 
L 138.202531 164.190517 
L 147.496808 162.238575 
L 152.567357 161.188578 
L 156.791086 160.249683 
L 166.085364 158.219958 
L 175.379641 156.21058 
L 184.673919 154.219148 
L 193.968196 152.243532 
L 201.447448 150.668834 
L 203.262474 150.260582 
L 203.262474 140.14909 
L 203.262474 137.522807 
L 193.968196 139.863833 
L 192.858683 140.14909 
L 184.673919 142.105208 
L 175.379641 144.351612 
L 166.085364 146.623397 
L 156.791086 148.92397 
L 149.856547 150.668834 
L 147.496808 151.218615 
L 138.202531 153.42527 
L 128.908253 155.657222 
L 119.613975 157.918232 
L 110.319698 160.212593 
L 106.453937 161.188578 
L 101.02542 162.448267 
L 91.731142 164.642297 
L 82.436865 166.865527 
L 73.142587 169.122884 
L 63.848309 171.420196 
L 62.717137 171.708322 
L 54.554032 173.643886 
L 45.259754 175.887694 
L 44.384814 176.105575 
L 35.965477 178.087215 
L 35.965477 182.228067 
L 35.965477 185.902167 
z
" clip-path="url(#p9f2b54d256)" style="fill: #762181"/>
    <path d="M 44.384814 176.105575 
L 45.259754 175.887694 
L 54.554032 173.643886 
L 62.717137 171.708322 
L 63.848309 171.420196 
L 73.142587 169.122884 
L 82.436865 166.865527 
L 91.731142 164.642297 
L 101.02542 162.448267 
L 106.453937 161.188578 
L 110.319698 160.212593 
L 119.613975 157.918232 
L 128.908253 155.657222 
L 138.202531 153.42527 
L 147.496808 151.218615 
L 149.856547 150.668834 
L 156.791086 148.92397 
L 166.085364 146.623397 
L 175.379641 144.351612 
L 184.673919 142.105208 
L 192.858683 140.14909 
L 193.968196 139.863833 
L 203.262474 137.522807 
L 203.262474 129.629346 
L 203.262474 123.773719 
L 193.968196 126.38646 
L 184.673919 129.040881 
L 182.656633 129.629346 
L 175.379641 131.5891 
L 166.085364 134.13034 
L 156.791086 136.710388 
L 147.496808 139.334644 
L 144.677049 140.14909 
L 138.202531 141.866692 
L 128.908253 144.374448 
L 119.613975 146.923227 
L 110.319698 149.519265 
L 106.302647 150.668834 
L 101.02542 152.047424 
L 91.731142 154.523428 
L 82.436865 157.043122 
L 73.142587 159.613866 
L 67.594823 161.188578 
L 63.848309 162.152276 
L 54.554032 164.599608 
L 45.259754 167.093883 
L 35.965477 169.644153 
L 35.965477 171.708322 
L 35.965477 176.105575 
L 35.965477 178.087215 
z
" clip-path="url(#p9f2b54d256)" style="fill: #902a81"/>
    <path d="M 45.259754 167.093883 
L 54.554032 164.599608 
L 63.848309 162.152276 
L 67.594823 161.188578 
L 73.142587 159.613866 
L 82.436865 157.043122 
L 91.731142 154.523428 
L 101.02542 152.047424 
L 106.302647 150.668834 
L 110.319698 149.519265 
L 119.613975 146.923227 
L 128.908253 144.374448 
L 138.202531 141.866692 
L 144.677049 140.14909 
L 147.496808 139.334644 
L 156.791086 136.710388 
L 166.085364 134.13034 
L 175.379641 131.5891 
L 182.656633 129.629346 
L 184.673919 129.040881 
L 193.968196 126.38646 
L 203.262474 123.773719 
L 203.262474 119.109602 
L 203.262474 108.736156 
L 193.968196 111.616687 
L 184.673919 114.549148 
L 175.379641 117.540371 
L 170.611764 119.109602 
L 166.085364 120.47575 
L 156.791086 123.336914 
L 147.496808 126.255089 
L 138.202531 129.238642 
L 137.015922 129.629346 
L 128.908253 132.06169 
L 119.613975 134.90678 
L 110.319698 137.815609 
L 103.051235 140.14909 
L 101.02542 140.739172 
L 91.731142 143.511967 
L 82.436865 146.346435 
L 73.142587 149.253281 
L 68.749167 150.668834 
L 63.848309 152.088967 
L 54.554032 154.850253 
L 45.259754 157.681881 
L 35.965477 160.597692 
L 35.965477 161.188578 
L 35.965477 169.644153 
z
" clip-path="url(#p9f2b54d256)" style="fill: #aa337d"/>
    <path d="M 45.259754 157.681881 
L 54.554032 154.850253 
L 63.848309 152.088967 
L 68.749167 150.668834 
L 73.142587 149.253281 
L 82.436865 146.346435 
L 91.731142 143.511967 
L 101.02542 140.739172 
L 103.051235 140.14909 
L 110.319698 137.815609 
L 119.613975 134.90678 
L 128.908253 132.06169 
L 137.015922 129.629346 
L 138.202531 129.238642 
L 147.496808 126.255089 
L 156.791086 123.336914 
L 166.085364 120.47575 
L 170.611764 119.109602 
L 175.379641 117.540371 
L 184.673919 114.549148 
L 193.968196 111.616687 
L 203.262474 108.736156 
L 203.262474 108.589857 
L 203.262474 98.070113 
L 203.262474 91.518522 
L 193.968196 94.924974 
L 185.603895 98.070113 
L 184.673919 98.389974 
L 175.379641 101.654937 
L 166.085364 105.000192 
L 156.791086 108.437111 
L 156.388264 108.589857 
L 147.496808 111.653131 
L 138.202531 114.93623 
L 128.908253 118.312835 
L 126.774737 119.109602 
L 119.613975 121.527425 
L 110.319698 124.747448 
L 101.02542 128.062873 
L 96.765838 129.629346 
L 91.731142 131.29407 
L 82.436865 134.450375 
L 73.142587 137.704054 
L 66.389011 140.14909 
L 63.848309 140.970888 
L 54.554032 144.063557 
L 45.259754 147.255603 
L 35.965477 150.567217 
L 35.965477 150.668834 
L 35.965477 160.597692 
z
" clip-path="url(#p9f2b54d256)" style="fill: #c43c75"/>
    <path d="M 45.259754 147.255603 
L 54.554032 144.063557 
L 63.848309 140.970888 
L 66.389011 140.14909 
L 73.142587 137.704054 
L 82.436865 134.450375 
L 91.731142 131.29407 
L 96.765838 129.629346 
L 101.02542 128.062873 
L 110.319698 124.747448 
L 119.613975 121.527425 
L 126.774737 119.109602 
L 128.908253 118.312835 
L 138.202531 114.93623 
L 147.496808 111.653131 
L 156.388264 108.589857 
L 156.791086 108.437111 
L 166.085364 105.000192 
L 175.379641 101.654937 
L 184.673919 98.389974 
L 185.603895 98.070113 
L 193.968196 94.924974 
L 203.262474 91.518522 
L 203.262474 87.550369 
L 203.262474 77.030625 
L 203.262474 71.497191 
L 193.968196 75.439771 
L 190.317096 77.030625 
L 184.673919 79.306895 
L 175.379641 83.159841 
L 166.085364 87.144275 
L 165.162581 87.550369 
L 156.791086 90.885109 
L 147.496808 94.706085 
L 139.590239 98.070113 
L 138.202531 98.603188 
L 128.908253 102.264619 
L 119.613975 106.054949 
L 113.609915 108.589857 
L 110.319698 109.836692 
L 101.02542 113.460811 
L 91.731142 117.222431 
L 87.23155 119.109602 
L 82.436865 120.902365 
L 73.142587 124.49047 
L 63.848309 128.226312 
L 60.485888 129.629346 
L 54.554032 131.818502 
L 45.259754 135.372762 
L 35.965477 139.087186 
L 35.965477 140.14909 
L 35.965477 150.567217 
z
" clip-path="url(#p9f2b54d256)" style="fill: #dc4869"/>
    <path d="M 45.259754 135.372762 
L 54.554032 131.818502 
L 60.485888 129.629346 
L 63.848309 128.226312 
L 73.142587 124.49047 
L 82.436865 120.902365 
L 87.23155 119.109602 
L 91.731142 117.222431 
L 101.02542 113.460811 
L 110.319698 109.836692 
L 113.609915 108.589857 
L 119.613975 106.054949 
L 128.908253 102.264619 
L 138.202531 98.603188 
L 139.590239 98.070113 
L 147.496808 94.706085 
L 156.791086 90.885109 
L 165.162581 87.550369 
L 166.085364 87.144275 
L 175.379641 83.159841 
L 184.673919 79.306895 
L 190.317096 77.030625 
L 193.968196 75.439771 
L 203.262474 71.497191 
L 203.262474 70.066554 
L 203.262474 66.510881 
L 203.262474 55.991137 
L 203.262474 46.465923 
L 193.968196 51.085619 
L 184.673919 55.90591 
L 184.513801 55.991137 
L 175.379641 60.386958 
L 166.085364 65.052464 
L 163.272209 66.510881 
L 156.791086 69.66587 
L 155.985734 70.066554 
L 147.496808 74.110062 
L 141.585192 77.030625 
L 138.202531 78.563777 
L 128.908253 82.913427 
L 119.613975 87.471355 
L 119.457573 87.550369 
L 110.319698 91.670429 
L 101.02542 96.059078 
L 96.931682 98.070113 
L 91.731142 100.340694 
L 82.436865 104.558778 
L 73.987979 108.589857 
L 73.142587 108.946728 
L 63.848309 112.993944 
L 54.554032 117.255001 
L 50.684323 119.109602 
L 45.259754 121.38851 
L 35.965477 125.46685 
L 35.965477 129.629346 
L 35.965477 139.087186 
z
" clip-path="url(#p9f2b54d256)" style="fill: #ef5d5e"/>
    <path d="M 45.259754 121.38851 
L 50.684323 119.109602 
L 54.554032 117.255001 
L 63.848309 112.993944 
L 73.142587 108.946728 
L 73.987979 108.589857 
L 82.436865 104.558778 
L 91.731142 100.340694 
L 96.931682 98.070113 
L 101.02542 96.059078 
L 110.319698 91.670429 
L 119.457573 87.550369 
L 119.613975 87.471355 
L 128.908253 82.913427 
L 138.202531 78.563777 
L 141.585192 77.030625 
L 147.496808 74.110062 
L 155.985734 70.066554 
L 156.791086 69.66587 
L 163.272209 66.510881 
L 166.085364 65.052464 
L 175.379641 60.386958 
L 184.513801 55.991137 
L 184.673919 55.90591 
L 193.968196 51.085619 
L 203.262474 46.465923 
L 203.262474 45.471392 
L 203.262474 34.951648 
L 203.262474 24.431904 
L 193.968196 24.431904 
L 184.673919 24.431904 
L 183.777892 24.431904 
L 175.379641 29.529358 
L 166.906222 34.951648 
L 166.085364 35.424789 
L 156.791086 40.945713 
L 149.564773 45.471392 
L 147.496808 46.633882 
L 138.202531 52.0438 
L 131.762387 55.991137 
L 128.908253 57.555319 
L 119.613975 62.847806 
L 113.507335 66.510881 
L 110.319698 68.299822 
L 107.235877 70.066554 
L 101.02542 73.473108 
L 94.809225 77.030625 
L 91.731142 78.631661 
L 82.436865 83.669794 
L 75.68098 87.550369 
L 73.142587 88.835452 
L 63.848309 93.736504 
L 56.136818 98.070113 
L 54.554032 98.849463 
L 45.259754 103.607392 
L 36.195541 108.589857 
L 35.965477 108.69994 
L 35.965477 119.109602 
L 35.965477 125.46685 
z
" clip-path="url(#p9f2b54d256)" style="fill: #f9795d"/>
    <path d="M 36.195541 108.589857 
L 45.259754 103.607392 
L 54.554032 98.849463 
L 56.136818 98.070113 
L 63.848309 93.736504 
L 73.142587 88.835452 
L 75.68098 87.550369 
L 82.436865 83.669794 
L 91.731142 78.631661 
L 94.809225 77.030625 
L 101.02542 73.473108 
L 107.235877 70.066554 
L 110.319698 68.299822 
L 113.507335 66.510881 
L 119.613975 62.847806 
L 128.908253 57.555319 
L 131.762387 55.991137 
L 138.202531 52.0438 
L 147.496808 46.633882 
L 149.564773 45.471392 
L 156.791086 40.945713 
L 166.085364 35.424789 
L 166.906222 34.951648 
L 175.379641 29.529358 
L 183.777892 24.431904 
L 175.379641 24.431904 
L 166.085364 24.431904 
L 156.791086 24.431904 
L 147.496808 24.431904 
L 138.202531 24.431904 
L 128.908253 24.431904 
L 120.882396 24.431904 
L 119.613975 25.359777 
L 110.319698 32.459051 
L 107.229578 34.951648 
L 101.02542 39.404032 
L 93.095795 45.471392 
L 91.731142 46.397744 
L 82.436865 52.992985 
L 78.461112 55.991137 
L 73.142587 59.531644 
L 63.848309 66.158065 
L 63.374125 66.510881 
L 58.152694 70.066554 
L 54.554032 72.415936 
L 47.802742 77.030625 
L 45.259754 78.597763 
L 35.965477 84.644817 
L 35.965477 87.550369 
L 35.965477 98.070113 
L 35.965477 108.589857 
L 35.965477 108.69994 
z
" clip-path="url(#p9f2b54d256)" style="fill: #fd9869"/>
    <path d="M 45.259754 78.597763 
L 47.802742 77.030625 
L 54.554032 72.415936 
L 58.152694 70.066554 
L 63.374125 66.510881 
L 63.848309 66.158065 
L 73.142587 59.531644 
L 78.461112 55.991137 
L 82.436865 52.992985 
L 91.731142 46.397744 
L 93.095795 45.471392 
L 101.02542 39.404032 
L 107.229578 34.951648 
L 110.319698 32.459051 
L 119.613975 25.359777 
L 120.882396 24.431904 
L 119.613975 24.431904 
L 110.319698 24.431904 
L 101.02542 24.431904 
L 91.731142 24.431904 
L 82.436865 24.431904 
L 73.142587 24.431904 
L 63.848309 24.431904 
L 54.554032 24.431904 
L 50.95795 24.431904 
L 45.259754 30.407679 
L 41.186356 34.951648 
L 35.965477 40.092617 
L 35.965477 45.471392 
L 35.965477 55.991137 
L 35.965477 66.510881 
L 35.965477 70.066554 
L 35.965477 77.030625 
L 35.965477 84.644817 
z
" clip-path="url(#p9f2b54d256)" style="fill: #feb67c"/>
    <path d="M 41.186356 34.951648 
L 45.259754 30.407679 
L 50.95795 24.431904 
L 45.259754 24.431904 
L 35.965477 24.431904 
L 35.965477 34.951648 
L 35.965477 40.092617 
z
" clip-path="url(#p9f2b54d256)" style="fill: #fed395"/>
    <path clip-path="url(#p9f2b54d256)" style="fill: #fcf0b2"/>
    <path clip-path="url(#p9f2b54d256)" style="fill: #fcfdbf"/>
   </g>
   <g id="matplotlib.axis_1">
    <g id="xtick_1">
     <g id="line2d_1">
      <defs>
       <path id="mef039456de" d="M 0 0 
L 0 3 
" style="stroke: #667680; stroke-width: 0.65"/>
      </defs>
      <g>
       <use xlink:href="#mef039456de" x="46.421539" y="213.787299" style="fill: #667680; stroke: #667680; stroke-width: 0.65"/>
      </g>
     </g>
     <g id="text_1">
      <text style="font-size: 7.8px; font-family: 'DejaVu Sans'; text-anchor: middle" x="46.421539" y="226.213471" transform="rotate(-0 46.421539 226.213471)">0.250</text>
     </g>
    </g>
    <g id="xtick_2">
     <g id="line2d_2">
      <g>
       <use xlink:href="#mef039456de" x="72.561695" y="213.787299" style="fill: #667680; stroke: #667680; stroke-width: 0.65"/>
      </g>
     </g>
     <g id="text_2">
      <text style="font-size: 7.8px; font-family: 'DejaVu Sans'; text-anchor: middle" x="72.561695" y="226.213471" transform="rotate(-0 72.561695 226.213471)">0.275</text>
     </g>
    </g>
    <g id="xtick_3">
     <g id="line2d_3">
      <g>
       <use xlink:href="#mef039456de" x="98.701851" y="213.787299" style="fill: #667680; stroke: #667680; stroke-width: 0.65"/>
      </g>
     </g>
     <g id="text_3">
      <text style="font-size: 7.8px; font-family: 'DejaVu Sans'; text-anchor: middle" x="98.701851" y="226.213471" transform="rotate(-0 98.701851 226.213471)">0.300</text>
     </g>
    </g>
    <g id="xtick_4">
     <g id="line2d_4">
      <g>
       <use xlink:href="#mef039456de" x="124.842007" y="213.787299" style="fill: #667680; stroke: #667680; stroke-width: 0.65"/>
      </g>
     </g>
     <g id="text_4">
      <text style="font-size: 7.8px; font-family: 'DejaVu Sans'; text-anchor: middle" x="124.842007" y="226.213471" transform="rotate(-0 124.842007 226.213471)">0.325</text>
     </g>
    </g>
    <g id="xtick_5">
     <g id="line2d_5">
      <g>
       <use xlink:href="#mef039456de" x="150.982162" y="213.787299" style="fill: #667680; stroke: #667680; stroke-width: 0.65"/>
      </g>
     </g>
     <g id="text_5">
      <text style="font-size: 7.8px; font-family: 'DejaVu Sans'; text-anchor: middle" x="150.982162" y="226.213471" transform="rotate(-0 150.982162 226.213471)">0.350</text>
     </g>
    </g>
    <g id="xtick_6">
     <g id="line2d_6">
      <g>
       <use xlink:href="#mef039456de" x="177.122318" y="213.787299" style="fill: #667680; stroke: #667680; stroke-width: 0.65"/>
      </g>
     </g>
     <g id="text_6">
      <text style="font-size: 7.8px; font-family: 'DejaVu Sans'; text-anchor: middle" x="177.122318" y="226.213471" transform="rotate(-0 177.122318 226.213471)">0.375</text>
     </g>
    </g>
    <g id="xtick_7">
     <g id="line2d_7">
      <g>
       <use xlink:href="#mef039456de" x="203.262474" y="213.787299" style="fill: #667680; stroke: #667680; stroke-width: 0.65"/>
      </g>
     </g>
     <g id="text_7">
      <text style="font-size: 7.8px; font-family: 'DejaVu Sans'; text-anchor: middle" x="203.262474" y="226.213471" transform="rotate(-0 203.262474 226.213471)">0.400</text>
     </g>
    </g>
    <g id="text_8">
     <!-- CO inlet flow (mol h$^{-1}$) -->
     <g transform="translate(70.197975 240.178299)">
      <text>
       <tspan x="0" y="-0.977213" style="font-size: 8.7px; font-family: 'DejaVu Sans'">C</tspan>
       <tspan x="6.065979" y="-0.977213" style="font-size: 8.7px; font-family: 'DejaVu Sans'">O</tspan>
       <tspan x="12.903992" y="-0.977213" style="font-size: 8.7px; font-family: 'DejaVu Sans'"> </tspan>
       <tspan x="15.665497" y="-0.977213" style="font-size: 8.7px; font-family: 'DejaVu Sans'">i</tspan>
       <tspan x="18.079163" y="-0.977213" style="font-size: 8.7px; font-family: 'DejaVu Sans'">n</tspan>
       <tspan x="23.585205" y="-0.977213" style="font-size: 8.7px; font-family: 'DejaVu Sans'">l</tspan>
       <tspan x="25.998871" y="-0.977213" style="font-size: 8.7px; font-family: 'DejaVu Sans'">e</tspan>
       <tspan x="31.343719" y="-0.977213" style="font-size: 8.7px; font-family: 'DejaVu Sans'">t</tspan>
       <tspan x="34.75" y="-0.977213" style="font-size: 8.7px; font-family: 'DejaVu Sans'"> </tspan>
       <tspan x="37.511505" y="-0.977213" style="font-size: 8.7px; font-family: 'DejaVu Sans'">f</tspan>
       <tspan x="40.569946" y="-0.977213" style="font-size: 8.7px; font-family: 'DejaVu Sans'">l</tspan>
       <tspan x="42.983612" y="-0.977213" style="font-size: 8.7px; font-family: 'DejaVu Sans'">o</tspan>
       <tspan x="48.298767" y="-0.977213" style="font-size: 8.7px; font-family: 'DejaVu Sans'">w</tspan>
       <tspan x="55.404022" y="-0.977213" style="font-size: 8.7px; font-family: 'DejaVu Sans'"> </tspan>
       <tspan x="58.165527" y="-0.977213" style="font-size: 8.7px; font-family: 'DejaVu Sans'">(</tspan>
       <tspan x="61.55484" y="-0.977213" style="font-size: 8.7px; font-family: 'DejaVu Sans'">m</tspan>
       <tspan x="70.017517" y="-0.977213" style="font-size: 8.7px; font-family: 'DejaVu Sans'">o</tspan>
       <tspan x="75.332672" y="-0.977213" style="font-size: 8.7px; font-family: 'DejaVu Sans'">l</tspan>
       <tspan x="77.746338" y="-0.977213" style="font-size: 8.7px; font-family: 'DejaVu Sans'"> </tspan>
       <tspan x="80.507843" y="-0.977213" style="font-size: 8.7px; font-family: 'DejaVu Sans'">h</tspan>
       <tspan x="95.299537" y="-0.977213" style="font-size: 8.7px; font-family: 'DejaVu Sans'">)</tspan>
       <tspan x="86.097147" y="-4.570312" style="font-size: 6.09px; font-family: 'DejaVu Sans'">−</tspan>
       <tspan x="91.19257" y="-4.570312" style="font-size: 6.09px; font-family: 'DejaVu Sans'">1</tspan>
      </text>
     </g>
    </g>
   </g>
   <g id="matplotlib.axis_2">
    <g id="ytick_1">
     <g id="line2d_8">
      <defs>
       <path id="mfea8470027" d="M 0 0 
L -3 0 
" style="stroke: #667680; stroke-width: 0.65"/>
      </defs>
      <g>
       <use xlink:href="#mfea8470027" x="35.965477" y="213.787299" style="fill: #667680; stroke: #667680; stroke-width: 0.65"/>
      </g>
     </g>
     <g id="text_9">
      <text style="font-size: 7.8px; font-family: 'DejaVu Sans'; text-anchor: end" x="29.465477" y="216.750385" transform="rotate(-0 29.465477 216.750385)">0.2</text>
     </g>
    </g>
    <g id="ytick_2">
     <g id="line2d_9">
      <g>
       <use xlink:href="#mfea8470027" x="35.965477" y="175.91622" style="fill: #667680; stroke: #667680; stroke-width: 0.65"/>
      </g>
     </g>
     <g id="text_10">
      <text style="font-size: 7.8px; font-family: 'DejaVu Sans'; text-anchor: end" x="29.465477" y="178.879306" transform="rotate(-0 29.465477 178.879306)">0.4</text>
     </g>
    </g>
    <g id="ytick_3">
     <g id="line2d_10">
      <g>
       <use xlink:href="#mfea8470027" x="35.965477" y="138.045141" style="fill: #667680; stroke: #667680; stroke-width: 0.65"/>
      </g>
     </g>
     <g id="text_11">
      <text style="font-size: 7.8px; font-family: 'DejaVu Sans'; text-anchor: end" x="29.465477" y="141.008227" transform="rotate(-0 29.465477 141.008227)">0.6</text>
     </g>
    </g>
    <g id="ytick_4">
     <g id="line2d_11">
      <g>
       <use xlink:href="#mfea8470027" x="35.965477" y="100.174062" style="fill: #667680; stroke: #667680; stroke-width: 0.65"/>
      </g>
     </g>
     <g id="text_12">
      <text style="font-size: 7.8px; font-family: 'DejaVu Sans'; text-anchor: end" x="29.465477" y="103.137148" transform="rotate(-0 29.465477 103.137148)">0.8</text>
     </g>
    </g>
    <g id="ytick_5">
     <g id="line2d_12">
      <g>
       <use xlink:href="#mfea8470027" x="35.965477" y="62.302983" style="fill: #667680; stroke: #667680; stroke-width: 0.65"/>
      </g>
     </g>
     <g id="text_13">
      <text style="font-size: 7.8px; font-family: 'DejaVu Sans'; text-anchor: end" x="29.465477" y="65.266069" transform="rotate(-0 29.465477 65.266069)">1.0</text>
     </g>
    </g>
    <g id="ytick_6">
     <g id="line2d_13">
      <g>
       <use xlink:href="#mfea8470027" x="35.965477" y="24.431904" style="fill: #667680; stroke: #667680; stroke-width: 0.65"/>
      </g>
     </g>
     <g id="text_14">
      <text style="font-size: 7.8px; font-family: 'DejaVu Sans'; text-anchor: end" x="29.465477" y="27.39499" transform="rotate(-0 29.465477 27.39499)">1.2</text>
     </g>
    </g>
    <g id="text_15">
     <!-- H$_2$ inlet flow (mol h$^{-1}$) -->
     <g transform="translate(10.971 167.438102) rotate(-90)">
      <text>
       <tspan x="0" y="-0.977213" style="font-size: 8.7px; font-family: 'DejaVu Sans'">H</tspan>
       <tspan x="10.722822" y="-0.977213" style="font-size: 8.7px; font-family: 'DejaVu Sans'"> </tspan>
       <tspan x="13.484327" y="-0.977213" style="font-size: 8.7px; font-family: 'DejaVu Sans'">i</tspan>
       <tspan x="15.897993" y="-0.977213" style="font-size: 8.7px; font-family: 'DejaVu Sans'">n</tspan>
       <tspan x="21.404035" y="-0.977213" style="font-size: 8.7px; font-family: 'DejaVu Sans'">l</tspan>
       <tspan x="23.817701" y="-0.977213" style="font-size: 8.7px; font-family: 'DejaVu Sans'">e</tspan>
       <tspan x="29.162549" y="-0.977213" style="font-size: 8.7px; font-family: 'DejaVu Sans'">t</tspan>
       <tspan x="32.56883" y="-0.977213" style="font-size: 8.7px; font-family: 'DejaVu Sans'"> </tspan>
       <tspan x="35.330335" y="-0.977213" style="font-size: 8.7px; font-family: 'DejaVu Sans'">f</tspan>
       <tspan x="38.388776" y="-0.977213" style="font-size: 8.7px; font-family: 'DejaVu Sans'">l</tspan>
       <tspan x="40.802442" y="-0.977213" style="font-size: 8.7px; font-family: 'DejaVu Sans'">o</tspan>
       <tspan x="46.117597" y="-0.977213" style="font-size: 8.7px; font-family: 'DejaVu Sans'">w</tspan>
       <tspan x="53.222852" y="-0.977213" style="font-size: 8.7px; font-family: 'DejaVu Sans'"> </tspan>
       <tspan x="55.984357" y="-0.977213" style="font-size: 8.7px; font-family: 'DejaVu Sans'">(</tspan>
       <tspan x="59.37367" y="-0.977213" style="font-size: 8.7px; font-family: 'DejaVu Sans'">m</tspan>
       <tspan x="67.836347" y="-0.977213" style="font-size: 8.7px; font-family: 'DejaVu Sans'">o</tspan>
       <tspan x="73.151502" y="-0.977213" style="font-size: 8.7px; font-family: 'DejaVu Sans'">l</tspan>
       <tspan x="75.565168" y="-0.977213" style="font-size: 8.7px; font-family: 'DejaVu Sans'"> </tspan>
       <tspan x="78.326673" y="-0.977213" style="font-size: 8.7px; font-family: 'DejaVu Sans'">h</tspan>
       <tspan x="93.118367" y="-0.977213" style="font-size: 8.7px; font-family: 'DejaVu Sans'">)</tspan>
       <tspan x="6.615854" y="0.327783" style="font-size: 6.09px; font-family: 'DejaVu Sans'">2</tspan>
       <tspan x="83.915977" y="-4.570312" style="font-size: 6.09px; font-family: 'DejaVu Sans'">−</tspan>
       <tspan x="89.0114" y="-4.570312" style="font-size: 6.09px; font-family: 'DejaVu Sans'">1</tspan>
      </text>
     </g>
    </g>
   </g>
   <g id="patch_3">
    <path d="M 35.965477 213.787299 
L 35.965477 24.431904 
" style="fill: none; stroke: #667680; stroke-width: 0.7; stroke-linejoin: miter; stroke-linecap: square"/>
   </g>
   <g id="patch_4">
    <path d="M 35.965477 213.787299 
L 203.262474 213.787299 
" style="fill: none; stroke: #667680; stroke-width: 0.7; stroke-linejoin: miter; stroke-linecap: square"/>
   </g>
   <g id="PathCollection_1">
    <defs>
     <path id="m85c082290c" d="M 0 2.645751 
C 0.701661 2.645751 1.374679 2.366978 1.870829 1.870829 
C 2.366978 1.374679 2.645751 0.701661 2.645751 0 
C 2.645751 -0.701661 2.366978 -1.374679 1.870829 -1.870829 
C 1.374679 -2.366978 0.701661 -2.645751 0 -2.645751 
C -0.701661 -2.645751 -1.374679 -2.366978 -1.870829 -1.870829 
C -2.366978 -1.374679 -2.645751 -0.701661 -2.645751 0 
C -2.645751 0.701661 -2.366978 1.374679 -1.870829 1.870829 
C -1.374679 2.366978 -0.701661 2.645751 0 2.645751 
z
" style="stroke: #183b56; stroke-width: 0.8"/>
    </defs>
    <g clip-path="url(#p9f2b54d256)">
     <use xlink:href="#m85c082290c" x="119.613975" y="70.066554" style="fill: #ffffff; stroke: #183b56; stroke-width: 0.8"/>
    </g>
   </g>
  </g>
  <g id="axes_2">
   <g id="patch_5">
    <path d="M 237.608962 213.787299 
L 404.90596 213.787299 
L 404.90596 24.431904 
L 237.608962 24.431904 
z
" style="fill: #ffffff"/>
   </g>
   <g id="QuadContourSet_2">
    <path d="M 321.048339 213.787299 
L 321.257461 213.787299 
L 330.551738 213.787299 
L 339.846016 213.787299 
L 349.140294 213.787299 
L 358.434571 213.787299 
L 367.728849 213.787299 
L 377.023127 213.787299 
L 386.317404 213.787299 
L 395.611682 213.787299 
L 404.90596 213.787299 
L 404.90596 205.994682 
L 395.611682 206.772892 
L 386.317404 207.554831 
L 377.023127 208.340859 
L 367.728849 209.130698 
L 358.434571 209.925248 
L 349.140294 210.724354 
L 339.846016 211.529086 
L 330.551738 212.339897 
L 321.257461 213.157065 
L 321.048339 213.175536 
L 314.187734 213.787299 
z
" clip-path="url(#pc2c5882e7c)" style="fill: #000004"/>
    <path d="M 246.90324 213.787299 
L 256.197517 213.787299 
L 265.491795 213.787299 
L 274.786073 213.787299 
L 284.08035 213.787299 
L 293.374628 213.787299 
L 302.668905 213.787299 
L 311.963183 213.787299 
L 314.187734 213.787299 
L 321.048339 213.175536 
L 321.257461 213.157065 
L 330.551738 212.339897 
L 339.846016 211.529086 
L 349.140294 210.724354 
L 358.434571 209.925248 
L 367.728849 209.130698 
L 377.023127 208.340859 
L 386.317404 207.554831 
L 395.611682 206.772892 
L 404.90596 205.994682 
L 404.90596 203.267555 
L 404.90596 195.856514 
L 395.611682 196.806775 
L 386.317404 197.762221 
L 377.023127 198.723357 
L 367.728849 199.69048 
L 358.434571 200.664163 
L 349.140294 201.645193 
L 339.846016 202.633975 
L 333.983685 203.267555 
L 330.551738 203.625031 
L 321.257461 204.611456 
L 321.048339 204.633733 
L 311.963183 205.605348 
L 302.668905 206.607358 
L 293.374628 207.618565 
L 284.08035 208.639726 
L 274.786073 209.672246 
L 265.491795 210.717471 
L 256.197517 211.776505 
L 246.90324 212.851394 
L 238.968977 213.787299 
z
" clip-path="url(#pc2c5882e7c)" style="fill: #030312"/>
    <path d="M 246.90324 212.851394 
L 256.197517 211.776505 
L 265.491795 210.717471 
L 274.786073 209.672246 
L 284.08035 208.639726 
L 293.374628 207.618565 
L 302.668905 206.607358 
L 311.963183 205.605348 
L 321.048339 204.633733 
L 321.257461 204.611456 
L 330.551738 203.625031 
L 333.983685 203.267555 
L 339.846016 202.633975 
L 349.140294 201.645193 
L 358.434571 200.664163 
L 367.728849 199.69048 
L 377.023127 198.723357 
L 386.317404 197.762221 
L 395.611682 196.806775 
L 404.90596 195.856514 
L 404.90596 192.747811 
L 404.90596 185.52132 
L 395.611682 186.652794 
L 386.317404 187.79201 
L 377.023127 188.938544 
L 367.728849 190.093809 
L 358.434571 191.258248 
L 349.140294 192.433091 
L 346.702758 192.747811 
L 339.846016 193.591537 
L 330.551738 194.74994 
L 321.257461 195.917205 
L 321.048339 195.943595 
L 311.963183 197.095437 
L 302.668905 198.285262 
L 293.374628 199.4881 
L 284.08035 200.70505 
L 274.786073 201.938291 
L 265.491795 203.189342 
L 264.931053 203.267555 
L 256.197517 204.422486 
L 246.90324 205.669758 
L 237.608962 206.935552 
L 237.608962 213.787299 
L 238.968977 213.787299 
z
" clip-path="url(#pc2c5882e7c)" style="fill: #130d34"/>
    <path d="M 246.90324 205.669758 
L 256.197517 204.422486 
L 264.931053 203.267555 
L 265.491795 203.189342 
L 274.786073 201.938291 
L 284.08035 200.70505 
L 293.374628 199.4881 
L 302.668905 198.285262 
L 311.963183 197.095437 
L 321.048339 195.943595 
L 321.257461 195.917205 
L 330.551738 194.74994 
L 339.846016 193.591537 
L 346.702758 192.747811 
L 349.140294 192.433091 
L 358.434571 191.258248 
L 367.728849 190.093809 
L 377.023127 188.938544 
L 386.317404 187.79201 
L 395.611682 186.652794 
L 404.90596 185.52132 
L 404.90596 182.228067 
L 404.90596 176.105575 
L 404.90596 174.895162 
L 396.535437 176.105575 
L 395.611682 176.234665 
L 386.317404 177.559492 
L 377.023127 178.894148 
L 367.728849 180.239888 
L 358.434571 181.597635 
L 354.194976 182.228067 
L 349.140294 182.945082 
L 339.846016 184.284121 
L 330.551738 185.635415 
L 321.257461 186.999704 
L 321.048339 187.030567 
L 311.963183 188.37882 
L 302.668905 189.774198 
L 293.374628 191.187546 
L 284.08035 192.620878 
L 283.28324 192.747811 
L 274.786073 194.02027 
L 265.491795 195.43269 
L 256.197517 196.86543 
L 246.90324 198.321049 
L 237.608962 199.802591 
L 237.608962 203.267555 
L 237.608962 206.935552 
z
" clip-path="url(#pc2c5882e7c)" style="fill: #29115a"/>
    <path d="M 246.90324 198.321049 
L 256.197517 196.86543 
L 265.491795 195.43269 
L 274.786073 194.02027 
L 283.28324 192.747811 
L 284.08035 192.620878 
L 293.374628 191.187546 
L 302.668905 189.774198 
L 311.963183 188.37882 
L 321.048339 187.030567 
L 321.257461 186.999704 
L 330.551738 185.635415 
L 339.846016 184.284121 
L 349.140294 182.945082 
L 354.194976 182.228067 
L 358.434571 181.597635 
L 367.728849 180.239888 
L 377.023127 178.894148 
L 386.317404 177.559492 
L 395.611682 176.234665 
L 396.535437 176.105575 
L 404.90596 174.895162 
L 404.90596 171.708322 
L 404.90596 163.731869 
L 395.611682 165.264646 
L 386.317404 166.810701 
L 377.023127 168.371182 
L 367.728849 169.947465 
L 358.434571 171.541036 
L 357.48169 171.708322 
L 349.140294 173.099194 
L 339.846016 174.667746 
L 331.435363 176.105575 
L 330.551738 176.250717 
L 321.257461 177.81568 
L 321.048339 177.8511 
L 311.963183 179.399368 
L 302.668905 181.003844 
L 295.705904 182.228067 
L 293.374628 182.615608 
L 284.08035 184.201042 
L 274.786073 185.808607 
L 265.491795 187.441037 
L 256.197517 189.101471 
L 246.90324 190.793308 
L 237.608962 192.521153 
L 237.608962 192.747811 
L 237.608962 199.802591 
z
" clip-path="url(#pc2c5882e7c)" style="fill: #440f76"/>
    <path d="M 246.90324 190.793308 
L 256.197517 189.101471 
L 265.491795 187.441037 
L 274.786073 185.808607 
L 284.08035 184.201042 
L 293.374628 182.615608 
L 295.705904 182.228067 
L 302.668905 181.003844 
L 311.963183 179.399368 
L 321.048339 177.8511 
L 321.257461 177.81568 
L 330.551738 176.250717 
L 331.435363 176.105575 
L 339.846016 174.667746 
L 349.140294 173.099194 
L 357.48169 171.708322 
L 358.434571 171.541036 
L 367.728849 169.947465 
L 377.023127 168.371182 
L 386.317404 166.810701 
L 395.611682 165.264646 
L 404.90596 163.731869 
L 404.90596 161.188578 
L 404.90596 151.988724 
L 395.611682 153.745137 
L 386.317404 155.518927 
L 377.023127 157.311783 
L 367.728849 159.125512 
L 358.434571 160.962216 
L 357.315991 161.188578 
L 349.140294 162.726206 
L 339.846016 164.496903 
L 330.551738 166.289517 
L 321.257461 168.106393 
L 321.048339 168.147571 
L 311.963183 169.95025 
L 303.249969 171.708322 
L 302.668905 171.818922 
L 293.374628 173.639517 
L 284.08035 175.489674 
L 281.07237 176.105575 
L 274.786073 177.333964 
L 265.491795 179.191371 
L 256.197517 181.084739 
L 250.741022 182.228067 
L 246.90324 182.980653 
L 237.608962 184.859696 
L 237.608962 192.521153 
z
" clip-path="url(#pc2c5882e7c)" style="fill: #5d177f"/>
    <path d="M 246.90324 182.980653 
L 250.741022 182.228067 
L 256.197517 181.084739 
L 265.491795 179.191371 
L 274.786073 177.333964 
L 281.07237 176.105575 
L 284.08035 175.489674 
L 293.374628 173.639517 
L 302.668905 171.818922 
L 303.249969 171.708322 
L 311.963183 169.95025 
L 321.048339 168.147571 
L 321.257461 168.106393 
L 330.551738 166.289517 
L 339.846016 164.496903 
L 349.140294 162.726206 
L 357.315991 161.188578 
L 358.434571 160.962216 
L 367.728849 159.125512 
L 377.023127 157.311783 
L 386.317404 155.518927 
L 395.611682 153.745137 
L 404.90596 151.988724 
L 404.90596 150.668834 
L 404.90596 140.14909 
L 404.90596 139.394871 
L 401.64817 140.14909 
L 395.611682 141.441269 
L 386.317404 143.460381 
L 377.023127 145.504242 
L 367.728849 147.575296 
L 358.434571 149.67633 
L 354.134404 150.668834 
L 349.140294 151.732464 
L 339.846016 153.748611 
L 330.551738 155.793866 
L 321.257461 157.871097 
L 321.048339 157.918232 
L 311.963183 159.984477 
L 306.79153 161.188578 
L 302.668905 162.071758 
L 293.374628 164.109841 
L 284.08035 166.183861 
L 274.786073 168.298212 
L 265.491795 170.458326 
L 260.270898 171.708322 
L 256.197517 172.619874 
L 246.90324 174.764759 
L 241.269397 176.105575 
L 237.608962 176.931896 
L 237.608962 182.228067 
L 237.608962 184.859696 
z
" clip-path="url(#pc2c5882e7c)" style="fill: #762181"/>
    <path d="M 241.269397 176.105575 
L 246.90324 174.764759 
L 256.197517 172.619874 
L 260.270898 171.708322 
L 265.491795 170.458326 
L 274.786073 168.298212 
L 284.08035 166.183861 
L 293.374628 164.109841 
L 302.668905 162.071758 
L 306.79153 161.188578 
L 311.963183 159.984477 
L 321.048339 157.918232 
L 321.257461 157.871097 
L 330.551738 155.793866 
L 339.846016 153.748611 
L 349.140294 151.732464 
L 354.134404 150.668834 
L 358.434571 149.67633 
L 367.728849 147.575296 
L 377.023127 145.504242 
L 386.317404 143.460381 
L 395.611682 141.441269 
L 401.64817 140.14909 
L 404.90596 139.394871 
L 404.90596 129.629346 
L 404.90596 125.579091 
L 395.611682 128.005961 
L 389.508995 129.629346 
L 386.317404 130.40865 
L 377.023127 132.72159 
L 367.728849 135.069313 
L 358.434571 137.455511 
L 349.140294 139.884816 
L 348.154785 140.14909 
L 339.846016 142.187374 
L 330.551738 144.50746 
L 321.257461 146.869558 
L 321.048339 146.923227 
L 311.963183 149.278768 
L 306.735538 150.668834 
L 302.668905 151.656084 
L 293.374628 153.968757 
L 284.08035 156.329008 
L 274.786073 158.74334 
L 265.608952 161.188578 
L 265.491795 161.216999 
L 256.197517 163.551042 
L 246.90324 165.941844 
L 237.608962 168.398178 
L 237.608962 171.708322 
L 237.608962 176.105575 
L 237.608962 176.931896 
z
" clip-path="url(#pc2c5882e7c)" style="fill: #902a81"/>
    <path d="M 246.90324 165.941844 
L 256.197517 163.551042 
L 265.491795 161.216999 
L 265.608952 161.188578 
L 274.786073 158.74334 
L 284.08035 156.329008 
L 293.374628 153.968757 
L 302.668905 151.656084 
L 306.735538 150.668834 
L 311.963183 149.278768 
L 321.048339 146.923227 
L 321.257461 146.869558 
L 330.551738 144.50746 
L 339.846016 142.187374 
L 348.154785 140.14909 
L 349.140294 139.884816 
L 358.434571 137.455511 
L 367.728849 135.069313 
L 377.023127 132.72159 
L 386.317404 130.40865 
L 389.508995 129.629346 
L 395.611682 128.005961 
L 404.90596 125.579091 
L 404.90596 119.109602 
L 404.90596 110.29699 
L 395.611682 113.025344 
L 386.317404 115.802764 
L 377.023127 118.634659 
L 375.501341 119.109602 
L 367.728849 121.316377 
L 358.434571 124.0061 
L 349.140294 126.749793 
L 339.846016 129.553902 
L 339.602808 129.629346 
L 330.551738 132.176255 
L 321.257461 134.846037 
L 321.048339 134.90678 
L 311.963183 137.576725 
L 303.427272 140.14909 
L 302.668905 140.356226 
L 293.374628 142.969366 
L 284.08035 145.644859 
L 274.786073 148.39197 
L 267.316372 150.668834 
L 265.491795 151.170831 
L 256.197517 153.814348 
L 246.90324 156.534037 
L 237.608962 159.342532 
L 237.608962 161.188578 
L 237.608962 168.398178 
z
" clip-path="url(#pc2c5882e7c)" style="fill: #aa337d"/>
    <path d="M 246.90324 156.534037 
L 256.197517 153.814348 
L 265.491795 151.170831 
L 267.316372 150.668834 
L 274.786073 148.39197 
L 284.08035 145.644859 
L 293.374628 142.969366 
L 302.668905 140.356226 
L 303.427272 140.14909 
L 311.963183 137.576725 
L 321.048339 134.90678 
L 321.257461 134.846037 
L 330.551738 132.176255 
L 339.602808 129.629346 
L 339.846016 129.553902 
L 349.140294 126.749793 
L 358.434571 124.0061 
L 367.728849 121.316377 
L 375.501341 119.109602 
L 377.023127 118.634659 
L 386.317404 115.802764 
L 395.611682 113.025344 
L 404.90596 110.29699 
L 404.90596 108.589857 
L 404.90596 98.070113 
L 404.90596 92.640447 
L 395.611682 95.978094 
L 389.922622 98.070113 
L 386.317404 99.269581 
L 377.023127 102.431704 
L 367.728849 105.667273 
L 359.541476 108.589857 
L 358.434571 108.946802 
L 349.140294 112.018166 
L 339.846016 115.164281 
L 330.551738 118.394855 
L 328.554591 119.109602 
L 321.257461 121.459191 
L 321.048339 121.527425 
L 311.963183 124.531054 
L 302.668905 127.690623 
L 297.143712 129.629346 
L 293.374628 130.816575 
L 284.08035 133.832691 
L 274.786073 136.941656 
L 265.519744 140.14909 
L 265.491795 140.157752 
L 256.197517 143.142259 
L 246.90324 146.227517 
L 237.608962 149.432311 
L 237.608962 150.668834 
L 237.608962 159.342532 
z
" clip-path="url(#pc2c5882e7c)" style="fill: #c43c75"/>
    <path d="M 246.90324 146.227517 
L 256.197517 143.142259 
L 265.491795 140.157752 
L 265.519744 140.14909 
L 274.786073 136.941656 
L 284.08035 133.832691 
L 293.374628 130.816575 
L 297.143712 129.629346 
L 302.668905 127.690623 
L 311.963183 124.531054 
L 321.048339 121.527425 
L 321.257461 121.459191 
L 328.554591 119.109602 
L 330.551738 118.394855 
L 339.846016 115.164281 
L 349.140294 112.018166 
L 358.434571 108.946802 
L 359.541476 108.589857 
L 367.728849 105.667273 
L 377.023127 102.431704 
L 386.317404 99.269581 
L 389.922622 98.070113 
L 395.611682 95.978094 
L 404.90596 92.640447 
L 404.90596 87.550369 
L 404.90596 77.030625 
L 404.90596 71.619628 
L 395.611682 75.630181 
L 392.449551 77.030625 
L 386.317404 79.516931 
L 377.023127 83.386234 
L 367.728849 87.373326 
L 367.327199 87.550369 
L 358.434571 91.062528 
L 349.140294 94.842443 
L 341.450651 98.070113 
L 339.846016 98.673208 
L 330.551738 102.263592 
L 321.257461 105.970087 
L 321.048339 106.054949 
L 314.905768 108.589857 
L 311.963183 109.673742 
L 302.668905 113.201808 
L 293.374628 116.85503 
L 287.847513 119.109602 
L 284.08035 120.476354 
L 274.786073 123.96462 
L 265.491795 127.590932 
L 260.4802 129.629346 
L 256.197517 131.171953 
L 246.90324 134.651394 
L 237.608962 138.28762 
L 237.608962 140.14909 
L 237.608962 149.432311 
z
" clip-path="url(#pc2c5882e7c)" style="fill: #dc4869"/>
    <path d="M 246.90324 134.651394 
L 256.197517 131.171953 
L 260.4802 129.629346 
L 265.491795 127.590932 
L 274.786073 123.96462 
L 284.08035 120.476354 
L 287.847513 119.109602 
L 293.374628 116.85503 
L 302.668905 113.201808 
L 311.963183 109.673742 
L 314.905768 108.589857 
L 321.048339 106.054949 
L 321.257461 105.970087 
L 330.551738 102.263592 
L 339.846016 98.673208 
L 341.450651 98.070113 
L 349.140294 94.842443 
L 358.434571 91.062528 
L 367.327199 87.550369 
L 367.728849 87.373326 
L 377.023127 83.386234 
L 386.317404 79.516931 
L 392.449551 77.030625 
L 395.611682 75.630181 
L 404.90596 71.619628 
L 404.90596 70.066554 
L 404.90596 66.510881 
L 404.90596 55.991137 
L 404.90596 45.471392 
L 404.90596 44.407273 
L 403.118336 45.471392 
L 395.611682 49.465136 
L 386.317404 54.583819 
L 383.83828 55.991137 
L 377.023127 59.443579 
L 367.728849 64.316227 
L 363.67962 66.510881 
L 358.434571 69.152691 
L 356.665772 70.066554 
L 349.140294 73.754236 
L 342.679894 77.030625 
L 339.846016 78.336607 
L 330.551738 82.757028 
L 321.257461 87.365282 
L 321.048339 87.471355 
L 320.894235 87.550369 
L 311.963183 91.604295 
L 302.668905 96.001326 
L 298.467212 98.070113 
L 293.374628 100.286147 
L 284.08035 104.490009 
L 275.434437 108.589857 
L 274.786073 108.86097 
L 265.491795 112.89106 
L 256.197517 117.123569 
L 252.04158 119.109602 
L 246.90324 121.261558 
L 237.608962 125.339535 
L 237.608962 129.629346 
L 237.608962 138.28762 
z
" clip-path="url(#pc2c5882e7c)" style="fill: #ef5d5e"/>
    <path d="M 246.90324 121.261558 
L 252.04158 119.109602 
L 256.197517 117.123569 
L 265.491795 112.89106 
L 274.786073 108.86097 
L 275.434437 108.589857 
L 284.08035 104.490009 
L 293.374628 100.286147 
L 298.467212 98.070113 
L 302.668905 96.001326 
L 311.963183 91.604295 
L 320.894235 87.550369 
L 321.048339 87.471355 
L 321.257461 87.365282 
L 330.551738 82.757028 
L 339.846016 78.336607 
L 342.679894 77.030625 
L 349.140294 73.754236 
L 356.665772 70.066554 
L 358.434571 69.152691 
L 363.67962 66.510881 
L 367.728849 64.316227 
L 377.023127 59.443579 
L 383.83828 55.991137 
L 386.317404 54.583819 
L 395.611682 49.465136 
L 403.118336 45.471392 
L 404.90596 44.407273 
L 404.90596 34.951648 
L 404.90596 24.431904 
L 395.611682 24.431904 
L 386.317404 24.431904 
L 379.017588 24.431904 
L 377.023127 25.806345 
L 367.728849 32.434483 
L 364.334506 34.951648 
L 358.434571 38.832749 
L 349.140294 45.223799 
L 348.791985 45.471392 
L 339.846016 51.099054 
L 332.437064 55.991137 
L 330.551738 57.091821 
L 321.257461 62.71767 
L 321.048339 62.847806 
L 315.28405 66.510881 
L 311.963183 68.4646 
L 309.312102 70.066554 
L 302.668905 73.872668 
L 297.382254 77.030625 
L 293.374628 79.188086 
L 284.08035 84.419555 
L 278.798418 87.550369 
L 274.786073 89.633057 
L 265.491795 94.690516 
L 259.623464 98.070113 
L 256.197517 99.791152 
L 246.90324 104.694709 
L 239.97588 108.589857 
L 237.608962 109.745772 
L 237.608962 119.109602 
L 237.608962 125.339535 
z
" clip-path="url(#pc2c5882e7c)" style="fill: #f9795d"/>
    <path d="M 239.97588 108.589857 
L 246.90324 104.694709 
L 256.197517 99.791152 
L 259.623464 98.070113 
L 265.491795 94.690516 
L 274.786073 89.633057 
L 278.798418 87.550369 
L 284.08035 84.419555 
L 293.374628 79.188086 
L 297.382254 77.030625 
L 302.668905 73.872668 
L 309.312102 70.066554 
L 311.963183 68.4646 
L 315.28405 66.510881 
L 321.048339 62.847806 
L 321.257461 62.71767 
L 330.551738 57.091821 
L 332.437064 55.991137 
L 339.846016 51.099054 
L 348.791985 45.471392 
L 349.140294 45.223799 
L 358.434571 38.832749 
L 364.334506 34.951648 
L 367.728849 32.434483 
L 377.023127 25.806345 
L 379.017588 24.431904 
L 377.023127 24.431904 
L 367.728849 24.431904 
L 358.434571 24.431904 
L 349.140294 24.431904 
L 339.846016 24.431904 
L 330.551738 24.431904 
L 322.150784 24.431904 
L 321.257461 25.183064 
L 321.048339 25.359777 
L 311.963183 33.336938 
L 310.207646 34.951648 
L 302.668905 41.050447 
L 297.493863 45.471392 
L 293.374628 48.560553 
L 284.08035 55.946328 
L 284.026325 55.991137 
L 274.786073 62.693157 
L 269.849387 66.510881 
L 265.491795 69.631294 
L 264.899048 70.066554 
L 256.197517 76.15151 
L 254.999771 77.030625 
L 246.90324 82.347679 
L 239.558171 87.550369 
L 237.608962 88.745019 
L 237.608962 98.070113 
L 237.608962 108.589857 
L 237.608962 109.745772 
z
" clip-path="url(#pc2c5882e7c)" style="fill: #fd9869"/>
    <path d="M 239.558171 87.550369 
L 246.90324 82.347679 
L 254.999771 77.030625 
L 256.197517 76.15151 
L 264.899048 70.066554 
L 265.491795 69.631294 
L 269.849387 66.510881 
L 274.786073 62.693157 
L 284.026325 55.991137 
L 284.08035 55.946328 
L 293.374628 48.560553 
L 297.493863 45.471392 
L 302.668905 41.050447 
L 310.207646 34.951648 
L 311.963183 33.336938 
L 321.048339 25.359777 
L 321.257461 25.183064 
L 322.150784 24.431904 
L 321.257461 24.431904 
L 321.048339 24.431904 
L 311.963183 24.431904 
L 302.668905 24.431904 
L 293.374628 24.431904 
L 284.08035 24.431904 
L 274.786073 24.431904 
L 265.491795 24.431904 
L 265.320464 24.431904 
L 256.269319 34.951648 
L 256.197517 35.024749 
L 246.90324 45.032994 
L 246.519254 45.471392 
L 237.608962 54.371751 
L 237.608962 55.991137 
L 237.608962 66.510881 
L 237.608962 70.066554 
L 237.608962 77.030625 
L 237.608962 87.550369 
L 237.608962 88.745019 
z
" clip-path="url(#pc2c5882e7c)" style="fill: #feb67c"/>
    <path d="M 246.519254 45.471392 
L 246.90324 45.032994 
L 256.197517 35.024749 
L 256.269319 34.951648 
L 265.320464 24.431904 
L 256.197517 24.431904 
L 246.90324 24.431904 
L 237.608962 24.431904 
L 237.608962 34.951648 
L 237.608962 45.471392 
L 237.608962 54.371751 
z
" clip-path="url(#pc2c5882e7c)" style="fill: #fed395"/>
    <path clip-path="url(#pc2c5882e7c)" style="fill: #fcf0b2"/>
    <path clip-path="url(#pc2c5882e7c)" style="fill: #fcfdbf"/>
   </g>
   <g id="matplotlib.axis_3">
    <g id="xtick_8">
     <g id="line2d_14">
      <g>
       <use xlink:href="#mef039456de" x="237.608962" y="213.787299" style="fill: #667680; stroke: #667680; stroke-width: 0.65"/>
      </g>
     </g>
     <g id="text_16">
      <text style="font-size: 7.8px; font-family: 'DejaVu Sans'; text-anchor: middle" x="237.608962" y="226.213471" transform="rotate(-0 237.608962 226.213471)">0.4</text>
     </g>
    </g>
    <g id="xtick_9">
     <g id="line2d_15">
      <g>
       <use xlink:href="#mef039456de" x="279.433211" y="213.787299" style="fill: #667680; stroke: #667680; stroke-width: 0.65"/>
      </g>
     </g>
     <g id="text_17">
      <text style="font-size: 7.8px; font-family: 'DejaVu Sans'; text-anchor: middle" x="279.433211" y="226.213471" transform="rotate(-0 279.433211 226.213471)">0.6</text>
     </g>
    </g>
    <g id="xtick_10">
     <g id="line2d_16">
      <g>
       <use xlink:href="#mef039456de" x="321.257461" y="213.787299" style="fill: #667680; stroke: #667680; stroke-width: 0.65"/>
      </g>
     </g>
     <g id="text_18">
      <text style="font-size: 7.8px; font-family: 'DejaVu Sans'; text-anchor: middle" x="321.257461" y="226.213471" transform="rotate(-0 321.257461 226.213471)">0.8</text>
     </g>
    </g>
    <g id="xtick_11">
     <g id="line2d_17">
      <g>
       <use xlink:href="#mef039456de" x="363.08171" y="213.787299" style="fill: #667680; stroke: #667680; stroke-width: 0.65"/>
      </g>
     </g>
     <g id="text_19">
      <text style="font-size: 7.8px; font-family: 'DejaVu Sans'; text-anchor: middle" x="363.08171" y="226.213471" transform="rotate(-0 363.08171 226.213471)">1.0</text>
     </g>
    </g>
    <g id="xtick_12">
     <g id="line2d_18">
      <g>
       <use xlink:href="#mef039456de" x="404.90596" y="213.787299" style="fill: #667680; stroke: #667680; stroke-width: 0.65"/>
      </g>
     </g>
     <g id="text_20">
      <text style="font-size: 7.8px; font-family: 'DejaVu Sans'; text-anchor: middle" x="404.90596" y="226.213471" transform="rotate(-0 404.90596 226.213471)">1.2</text>
     </g>
    </g>
    <g id="text_21">
     <!-- N$_2$ inlet flow (mol h$^{-1}$) -->
     <g transform="translate(272.928961 240.178299)">
      <text>
       <tspan x="0" y="-0.977213" style="font-size: 8.7px; font-family: 'DejaVu Sans'">N</tspan>
       <tspan x="10.688886" y="-0.977213" style="font-size: 8.7px; font-family: 'DejaVu Sans'"> </tspan>
       <tspan x="13.450391" y="-0.977213" style="font-size: 8.7px; font-family: 'DejaVu Sans'">i</tspan>
       <tspan x="15.864057" y="-0.977213" style="font-size: 8.7px; font-family: 'DejaVu Sans'">n</tspan>
       <tspan x="21.370099" y="-0.977213" style="font-size: 8.7px; font-family: 'DejaVu Sans'">l</tspan>
       <tspan x="23.783765" y="-0.977213" style="font-size: 8.7px; font-family: 'DejaVu Sans'">e</tspan>
       <tspan x="29.128614" y="-0.977213" style="font-size: 8.7px; font-family: 'DejaVu Sans'">t</tspan>
       <tspan x="32.534894" y="-0.977213" style="font-size: 8.7px; font-family: 'DejaVu Sans'"> </tspan>
       <tspan x="35.2964" y="-0.977213" style="font-size: 8.7px; font-family: 'DejaVu Sans'">f</tspan>
       <tspan x="38.354841" y="-0.977213" style="font-size: 8.7px; font-family: 'DejaVu Sans'">l</tspan>
       <tspan x="40.768506" y="-0.977213" style="font-size: 8.7px; font-family: 'DejaVu Sans'">o</tspan>
       <tspan x="46.083661" y="-0.977213" style="font-size: 8.7px; font-family: 'DejaVu Sans'">w</tspan>
       <tspan x="53.188917" y="-0.977213" style="font-size: 8.7px; font-family: 'DejaVu Sans'"> </tspan>
       <tspan x="55.950422" y="-0.977213" style="font-size: 8.7px; font-family: 'DejaVu Sans'">(</tspan>
       <tspan x="59.339734" y="-0.977213" style="font-size: 8.7px; font-family: 'DejaVu Sans'">m</tspan>
       <tspan x="67.802411" y="-0.977213" style="font-size: 8.7px; font-family: 'DejaVu Sans'">o</tspan>
       <tspan x="73.117567" y="-0.977213" style="font-size: 8.7px; font-family: 'DejaVu Sans'">l</tspan>
       <tspan x="75.531232" y="-0.977213" style="font-size: 8.7px; font-family: 'DejaVu Sans'"> </tspan>
       <tspan x="78.292737" y="-0.977213" style="font-size: 8.7px; font-family: 'DejaVu Sans'">h</tspan>
       <tspan x="93.084431" y="-0.977213" style="font-size: 8.7px; font-family: 'DejaVu Sans'">)</tspan>
       <tspan x="6.581919" y="0.327783" style="font-size: 6.09px; font-family: 'DejaVu Sans'">2</tspan>
       <tspan x="83.882042" y="-4.570312" style="font-size: 6.09px; font-family: 'DejaVu Sans'">−</tspan>
       <tspan x="88.977464" y="-4.570312" style="font-size: 6.09px; font-family: 'DejaVu Sans'">1</tspan>
      </text>
     </g>
    </g>
   </g>
   <g id="matplotlib.axis_4">
    <g id="ytick_7">
     <g id="line2d_19">
      <g>
       <use xlink:href="#mfea8470027" x="237.608962" y="213.787299" style="fill: #667680; stroke: #667680; stroke-width: 0.65"/>
      </g>
     </g>
    </g>
    <g id="ytick_8">
     <g id="line2d_20">
      <g>
       <use xlink:href="#mfea8470027" x="237.608962" y="175.91622" style="fill: #667680; stroke: #667680; stroke-width: 0.65"/>
      </g>
     </g>
    </g>
    <g id="ytick_9">
     <g id="line2d_21">
      <g>
       <use xlink:href="#mfea8470027" x="237.608962" y="138.045141" style="fill: #667680; stroke: #667680; stroke-width: 0.65"/>
      </g>
     </g>
    </g>
    <g id="ytick_10">
     <g id="line2d_22">
      <g>
       <use xlink:href="#mfea8470027" x="237.608962" y="100.174062" style="fill: #667680; stroke: #667680; stroke-width: 0.65"/>
      </g>
     </g>
    </g>
    <g id="ytick_11">
     <g id="line2d_23">
      <g>
       <use xlink:href="#mfea8470027" x="237.608962" y="62.302983" style="fill: #667680; stroke: #667680; stroke-width: 0.65"/>
      </g>
     </g>
    </g>
    <g id="ytick_12">
     <g id="line2d_24">
      <g>
       <use xlink:href="#mfea8470027" x="237.608962" y="24.431904" style="fill: #667680; stroke: #667680; stroke-width: 0.65"/>
      </g>
     </g>
    </g>
    <g id="text_22">
     <!-- H$_2$ inlet flow (mol h$^{-1}$) -->
     <g transform="translate(228.518923 167.438102) rotate(-90)">
      <text>
       <tspan x="0" y="-0.977213" style="font-size: 8.7px; font-family: 'DejaVu Sans'">H</tspan>
       <tspan x="10.722822" y="-0.977213" style="font-size: 8.7px; font-family: 'DejaVu Sans'"> </tspan>
       <tspan x="13.484327" y="-0.977213" style="font-size: 8.7px; font-family: 'DejaVu Sans'">i</tspan>
       <tspan x="15.897993" y="-0.977213" style="font-size: 8.7px; font-family: 'DejaVu Sans'">n</tspan>
       <tspan x="21.404035" y="-0.977213" style="font-size: 8.7px; font-family: 'DejaVu Sans'">l</tspan>
       <tspan x="23.817701" y="-0.977213" style="font-size: 8.7px; font-family: 'DejaVu Sans'">e</tspan>
       <tspan x="29.162549" y="-0.977213" style="font-size: 8.7px; font-family: 'DejaVu Sans'">t</tspan>
       <tspan x="32.56883" y="-0.977213" style="font-size: 8.7px; font-family: 'DejaVu Sans'"> </tspan>
       <tspan x="35.330335" y="-0.977213" style="font-size: 8.7px; font-family: 'DejaVu Sans'">f</tspan>
       <tspan x="38.388776" y="-0.977213" style="font-size: 8.7px; font-family: 'DejaVu Sans'">l</tspan>
       <tspan x="40.802442" y="-0.977213" style="font-size: 8.7px; font-family: 'DejaVu Sans'">o</tspan>
       <tspan x="46.117597" y="-0.977213" style="font-size: 8.7px; font-family: 'DejaVu Sans'">w</tspan>
       <tspan x="53.222852" y="-0.977213" style="font-size: 8.7px; font-family: 'DejaVu Sans'"> </tspan>
       <tspan x="55.984357" y="-0.977213" style="font-size: 8.7px; font-family: 'DejaVu Sans'">(</tspan>
       <tspan x="59.37367" y="-0.977213" style="font-size: 8.7px; font-family: 'DejaVu Sans'">m</tspan>
       <tspan x="67.836347" y="-0.977213" style="font-size: 8.7px; font-family: 'DejaVu Sans'">o</tspan>
       <tspan x="73.151502" y="-0.977213" style="font-size: 8.7px; font-family: 'DejaVu Sans'">l</tspan>
       <tspan x="75.565168" y="-0.977213" style="font-size: 8.7px; font-family: 'DejaVu Sans'"> </tspan>
       <tspan x="78.326673" y="-0.977213" style="font-size: 8.7px; font-family: 'DejaVu Sans'">h</tspan>
       <tspan x="93.118367" y="-0.977213" style="font-size: 8.7px; font-family: 'DejaVu Sans'">)</tspan>
       <tspan x="6.615854" y="0.327783" style="font-size: 6.09px; font-family: 'DejaVu Sans'">2</tspan>
       <tspan x="83.915977" y="-4.570312" style="font-size: 6.09px; font-family: 'DejaVu Sans'">−</tspan>
       <tspan x="89.0114" y="-4.570312" style="font-size: 6.09px; font-family: 'DejaVu Sans'">1</tspan>
      </text>
     </g>
    </g>
   </g>
   <g id="patch_6">
    <path d="M 237.608962 213.787299 
L 237.608962 24.431904 
" style="fill: none; stroke: #667680; stroke-width: 0.7; stroke-linejoin: miter; stroke-linecap: square"/>
   </g>
   <g id="patch_7">
    <path d="M 237.608962 213.787299 
L 404.90596 213.787299 
" style="fill: none; stroke: #667680; stroke-width: 0.7; stroke-linejoin: miter; stroke-linecap: square"/>
   </g>
   <g id="PathCollection_2">
    <g clip-path="url(#pc2c5882e7c)">
     <use xlink:href="#m85c082290c" x="321.048339" y="70.066554" style="fill: #ffffff; stroke: #183b56; stroke-width: 0.8"/>
    </g>
   </g>
  </g>
  <g id="axes_3">
   <g id="patch_8">
    <path d="M 420.33169 205.180236 
L 429.79946 205.180236 
L 429.79946 33.038967 
L 420.33169 33.038967 
z
" style="fill: #ffffff"/>
   </g>
   <g id="patch_9">
    <path d="M 420.33169 205.180236 
L 425.065575 213.787299 
L 429.79946 205.180236 
" style="fill: #000004"/>
   </g>
   <g id="patch_10">
    <path d="M 420.33169 33.038967 
L 425.065575 24.431904 
L 429.79946 33.038967 
" style="fill: #fcfdbf"/>
   </g>
   <g id="QuadMesh_1">
    <path d="M 420.33169 205.180236 
L 429.79946 205.180236 
L 429.79946 194.421406 
L 420.33169 194.421406 
L 420.33169 205.180236 
" clip-path="url(#pcaa9a00eec)" style="fill: #030312"/>
    <path d="M 420.33169 194.421406 
L 429.79946 194.421406 
L 429.79946 183.662577 
L 420.33169 183.662577 
L 420.33169 194.421406 
" clip-path="url(#pcaa9a00eec)" style="fill: #130d34"/>
    <path d="M 420.33169 183.662577 
L 429.79946 183.662577 
L 429.79946 172.903748 
L 420.33169 172.903748 
L 420.33169 183.662577 
" clip-path="url(#pcaa9a00eec)" style="fill: #29115a"/>
    <path d="M 420.33169 172.903748 
L 429.79946 172.903748 
L 429.79946 162.144919 
L 420.33169 162.144919 
L 420.33169 172.903748 
" clip-path="url(#pcaa9a00eec)" style="fill: #440f76"/>
    <path d="M 420.33169 162.144919 
L 429.79946 162.144919 
L 429.79946 151.386089 
L 420.33169 151.386089 
L 420.33169 162.144919 
" clip-path="url(#pcaa9a00eec)" style="fill: #5d177f"/>
    <path d="M 420.33169 151.386089 
L 429.79946 151.386089 
L 429.79946 140.62726 
L 420.33169 140.62726 
L 420.33169 151.386089 
" clip-path="url(#pcaa9a00eec)" style="fill: #762181"/>
    <path d="M 420.33169 140.62726 
L 429.79946 140.62726 
L 429.79946 129.868431 
L 420.33169 129.868431 
L 420.33169 140.62726 
" clip-path="url(#pcaa9a00eec)" style="fill: #902a81"/>
    <path d="M 420.33169 129.868431 
L 429.79946 129.868431 
L 429.79946 119.109602 
L 420.33169 119.109602 
L 420.33169 129.868431 
" clip-path="url(#pcaa9a00eec)" style="fill: #aa337d"/>
    <path d="M 420.33169 119.109602 
L 429.79946 119.109602 
L 429.79946 108.350772 
L 420.33169 108.350772 
L 420.33169 119.109602 
" clip-path="url(#pcaa9a00eec)" style="fill: #c43c75"/>
    <path d="M 420.33169 108.350772 
L 429.79946 108.350772 
L 429.79946 97.591943 
L 420.33169 97.591943 
L 420.33169 108.350772 
" clip-path="url(#pcaa9a00eec)" style="fill: #dc4869"/>
    <path d="M 420.33169 97.591943 
L 429.79946 97.591943 
L 429.79946 86.833114 
L 420.33169 86.833114 
L 420.33169 97.591943 
" clip-path="url(#pcaa9a00eec)" style="fill: #ef5d5e"/>
    <path d="M 420.33169 86.833114 
L 429.79946 86.833114 
L 429.79946 76.074285 
L 420.33169 76.074285 
L 420.33169 86.833114 
" clip-path="url(#pcaa9a00eec)" style="fill: #f9795d"/>
    <path d="M 420.33169 76.074285 
L 429.79946 76.074285 
L 429.79946 65.315455 
L 420.33169 65.315455 
L 420.33169 76.074285 
" clip-path="url(#pcaa9a00eec)" style="fill: #fd9869"/>
    <path d="M 420.33169 65.315455 
L 429.79946 65.315455 
L 429.79946 54.556626 
L 420.33169 54.556626 
L 420.33169 65.315455 
" clip-path="url(#pcaa9a00eec)" style="fill: #feb67c"/>
    <path d="M 420.33169 54.556626 
L 429.79946 54.556626 
L 429.79946 43.797797 
L 420.33169 43.797797 
L 420.33169 54.556626 
" clip-path="url(#pcaa9a00eec)" style="fill: #fed395"/>
    <path d="M 420.33169 43.797797 
L 429.79946 43.797797 
L 429.79946 33.038967 
L 420.33169 33.038967 
L 420.33169 43.797797 
" clip-path="url(#pcaa9a00eec)" style="fill: #fcf0b2"/>
   </g>
   <g id="matplotlib.axis_5"/>
   <g id="matplotlib.axis_6">
    <g id="ytick_13">
     <g id="line2d_25">
      <defs>
       <path id="m7560b9a2f5" d="M 0 0 
L 2 0 
" style="stroke: #000000; stroke-width: 0.8"/>
      </defs>
      <g>
       <use xlink:href="#m7560b9a2f5" x="429.79946" y="205.180236" style="stroke: #000000; stroke-width: 0.8"/>
      </g>
     </g>
     <g id="text_23">
      <text style="font-size: 7.2px; font-family: 'DejaVu Sans'; text-anchor: start" x="435.29946" y="207.915392" transform="rotate(-0 435.29946 207.915392)">20</text>
     </g>
    </g>
    <g id="ytick_14">
     <g id="line2d_26">
      <g>
       <use xlink:href="#m7560b9a2f5" x="429.79946" y="162.144919" style="stroke: #000000; stroke-width: 0.8"/>
      </g>
     </g>
     <g id="text_24">
      <text style="font-size: 7.2px; font-family: 'DejaVu Sans'; text-anchor: start" x="435.29946" y="164.880075" transform="rotate(-0 435.29946 164.880075)">40</text>
     </g>
    </g>
    <g id="ytick_15">
     <g id="line2d_27">
      <g>
       <use xlink:href="#m7560b9a2f5" x="429.79946" y="119.109602" style="stroke: #000000; stroke-width: 0.8"/>
      </g>
     </g>
     <g id="text_25">
      <text style="font-size: 7.2px; font-family: 'DejaVu Sans'; text-anchor: start" x="435.29946" y="121.844758" transform="rotate(-0 435.29946 121.844758)">60</text>
     </g>
    </g>
    <g id="ytick_16">
     <g id="line2d_28">
      <g>
       <use xlink:href="#m7560b9a2f5" x="429.79946" y="76.074285" style="stroke: #000000; stroke-width: 0.8"/>
      </g>
     </g>
     <g id="text_26">
      <text style="font-size: 7.2px; font-family: 'DejaVu Sans'; text-anchor: start" x="435.29946" y="78.809441" transform="rotate(-0 435.29946 78.809441)">80</text>
     </g>
    </g>
    <g id="ytick_17">
     <g id="line2d_29">
      <g>
       <use xlink:href="#m7560b9a2f5" x="429.79946" y="33.038967" style="stroke: #000000; stroke-width: 0.8"/>
      </g>
     </g>
     <g id="text_27">
      <text style="font-size: 7.2px; font-family: 'DejaVu Sans'; text-anchor: start" x="435.29946" y="35.774124" transform="rotate(-0 435.29946 35.774124)">100</text>
     </g>
    </g>
    <g id="text_28">
     <text style="font-size: 8px; font-family: 'DejaVu Sans'; text-anchor: middle" x="459.12121" y="119.109602" transform="rotate(-90 459.12121 119.109602)">Outlet CO conversion (%)</text>
    </g>
   </g>
   <g id="LineCollection_1"/>
   <g id="patch_11">
    <path d="M 420.33169 205.180236 
L 425.065575 213.787299 
L 429.79946 205.180236 
L 429.79946 33.038967 
L 425.065575 24.431904 
L 420.33169 33.038967 
L 420.33169 205.180236 
z
" style="fill: none; stroke: #000000; stroke-width: 0.7; stroke-linejoin: miter; stroke-linecap: square"/>
   </g>
  </g>
  <g id="legend_1">
   <g id="line2d_30">
    <path d="M 179.262838 8.872844 
L 186.662838 8.872844 
L 194.062838 8.872844 
" style="fill: none; stroke: #000000; stroke-opacity: 0; stroke-width: 1.55; stroke-linecap: round"/>
    <defs>
     <path id="m27cdc3c047" d="M 0 2.25 
C 0.596707 2.25 1.169055 2.012926 1.59099 1.59099 
C 2.012926 1.169055 2.25 0.596707 2.25 0 
C 2.25 -0.596707 2.012926 -1.169055 1.59099 -1.59099 
C 1.169055 -2.012926 0.596707 -2.25 0 -2.25 
C -0.596707 -2.25 -1.169055 -2.012926 -1.59099 -1.59099 
C -2.012926 -1.169055 -2.25 -0.596707 -2.25 0 
C -2.25 0.596707 -2.012926 1.169055 -1.59099 1.59099 
C -1.169055 2.012926 -0.596707 2.25 0 2.25 
z
" style="stroke: #183b56"/>
    </defs>
    <g>
     <use xlink:href="#m27cdc3c047" x="186.662838" y="8.872844" style="fill: #ffffff; stroke: #183b56"/>
    </g>
   </g>
   <g id="text_29">
    <text style="font-size: 7.4px; font-family: 'DejaVu Sans'; text-anchor: start" x="197.392838" y="11.462844" transform="rotate(-0 197.392838 11.462844)">Experiment 1 reference</text>
   </g>
  </g>
 </g>
 <defs>
  <clipPath id="p9f2b54d256">
   <rect x="35.965477" y="24.431904" width="167.296998" height="189.355395"/>
  </clipPath>
  <clipPath id="pc2c5882e7c">
   <rect x="237.608962" y="24.431904" width="167.296998" height="189.355395"/>
  </clipPath>
  <clipPath id="pcaa9a00eec">
   <rect x="420.33169" y="33.038967" width="9.46777" height="172.141268"/>
  </clipPath>
 </defs>
</svg>
